<svg width="202" height="164" viewBox="0 0 202 164" fill="none" xmlns="http://www.w3.org/2000/svg">
<path d="M201.331 88.9828C201.785 88.7012 202.004 88.0351 201.821 87.495L198.84 78.6929C198.657 78.1527 198.141 77.9431 197.688 78.2247C197.235 78.5062 197.015 79.1723 197.198 79.7125L199.848 87.5365L193.28 91.6148C192.827 91.8964 192.608 92.5625 192.791 93.1026C192.974 93.6428 193.489 93.8524 193.943 93.5709L201.331 88.9828ZM67 75.9046C67.1025 76.9826 67.1025 76.9826 67.1028 76.9825C67.1031 76.9824 67.1036 76.9823 67.1044 76.9821C67.106 76.9817 67.1085 76.981 67.112 76.9801C67.119 76.9783 67.1298 76.9754 67.1444 76.9717C67.1735 76.9641 67.2179 76.9527 67.2772 76.9376C67.3958 76.9076 67.5743 76.8631 67.811 76.806C68.2843 76.6919 68.9902 76.5277 69.9154 76.3284C71.7657 75.9299 74.4927 75.3915 77.9885 74.8347C84.9806 73.7211 95.0471 72.5342 107.327 72.2456C131.889 71.6683 165.291 74.6853 200.654 89.0568L201.346 86.9527C165.765 72.4927 132.167 69.4596 107.465 70.0402C95.1131 70.3305 84.9815 71.5245 77.9335 72.647C74.4094 73.2083 71.6558 73.7518 69.7806 74.1556C68.843 74.3576 68.125 74.5246 67.64 74.6415C67.3975 74.7 67.2132 74.7459 67.0889 74.7774C67.0267 74.7932 66.9796 74.8053 66.9476 74.8136C66.9316 74.8177 66.9194 74.8209 66.911 74.8231C66.9069 74.8242 66.9036 74.8251 66.9014 74.8257C66.9002 74.826 66.8993 74.8262 66.8987 74.8264C66.898 74.8266 66.8975 74.8267 67 75.9046Z" fill="black"/>
<path d="M3.672 88.307C3.576 88.283 3.42 88.259 3.204 88.235C2.988 88.211 2.808 88.151 2.664 88.055C2.304 87.815 2.16 87.407 2.232 86.831L2.268 86.039C2.364 84.743 2.412 83.771 2.412 83.123C2.412 79.355 2.376 75.563 2.304 71.747C2.304 69.779 2.244 67.691 2.124 65.483C2.1 65.099 2.184 64.775 2.376 64.511C2.592 64.247 2.856 64.115 3.168 64.115C3.456 64.115 3.744 64.247 4.032 64.511C4.344 64.775 4.488 65.087 4.464 65.447C4.296 66.167 4.212 67.607 4.212 69.767V72.647C4.212 73.175 4.236 74.015 4.284 75.167C4.356 75.071 4.584 74.627 4.968 73.835C5.016 73.739 5.1 73.595 5.22 73.403C5.34 73.187 5.424 72.971 5.472 72.755C6.264 70.355 6.912 68.507 7.416 67.211C7.632 66.515 7.92 65.927 8.28 65.447C8.64 64.943 9.132 64.595 9.756 64.403C9.972 64.331 10.26 64.355 10.62 64.475C11.004 64.595 11.256 64.739 11.376 64.907C11.52 65.075 11.592 65.279 11.592 65.519C11.592 65.759 11.508 65.975 11.34 66.167C11.196 66.359 11.004 66.479 10.764 66.527C10.164 66.623 9.696 66.839 9.36 67.175C9.024 67.511 8.772 67.871 8.604 68.255C8.46 68.615 8.28 69.167 8.064 69.911L6.624 73.439C6.552 73.607 6.444 73.895 6.3 74.303C6.18 74.711 6.06 75.023 5.94 75.239C5.892 75.311 5.82 75.383 5.724 75.455C5.628 75.527 5.544 75.599 5.472 75.671C5.64 75.551 5.856 75.587 6.12 75.779C6.408 75.971 6.696 76.235 6.984 76.571C7.176 76.955 7.308 77.375 7.38 77.831C7.476 78.287 7.536 78.551 7.56 78.623C7.608 79.007 7.656 79.295 7.704 79.487C7.992 80.255 8.196 80.963 8.316 81.611C8.436 82.235 8.52 82.979 8.568 83.843C8.64 84.707 8.88 85.463 9.288 86.111C9.408 86.135 9.54 86.159 9.684 86.183C9.852 86.207 10.032 86.231 10.224 86.255C10.608 86.279 10.86 86.519 10.98 86.975C11.004 87.023 11.016 87.107 11.016 87.227C11.016 87.491 10.896 87.743 10.656 87.983C10.296 88.343 9.84 88.523 9.288 88.523C8.88 88.523 8.484 88.415 8.1 88.199C7.74 87.983 7.476 87.695 7.308 87.335C7.164 87.095 7.044 86.771 6.948 86.363C6.78 85.331 6.636 84.287 6.516 83.231C6.42 81.767 6.312 80.663 6.192 79.919C6.096 79.151 5.868 78.419 5.508 77.723C5.412 77.555 5.316 77.435 5.22 77.363C5.124 77.267 4.992 77.219 4.824 77.219C4.68 77.219 4.5 77.255 4.284 77.327C4.236 79.055 4.212 80.735 4.212 82.367C4.212 83.399 4.26 84.971 4.356 87.083C4.38 87.347 4.332 87.563 4.212 87.731C4.116 87.875 3.936 88.067 3.672 88.307ZM14.4245 89.027C14.2325 89.027 14.0645 88.967 13.9205 88.847C13.7765 88.727 13.6685 88.571 13.5965 88.379C13.5725 88.331 13.5605 88.259 13.5605 88.163C13.5605 87.851 13.7285 87.599 14.0645 87.407C14.7365 87.119 15.2405 86.687 15.5765 86.111C15.9365 85.511 16.1885 84.815 16.3325 84.023C16.7645 81.671 16.9805 79.115 16.9805 76.355C16.9805 75.323 16.9685 74.543 16.9445 74.015C16.7765 69.959 16.6325 67.103 16.5125 65.447V65.303C16.5125 65.087 16.5605 64.919 16.6565 64.799C16.7525 64.679 16.9205 64.595 17.1605 64.547C18.6965 64.259 19.9205 64.115 20.8325 64.115C21.3125 64.115 21.6725 64.127 21.9125 64.151C22.4645 64.175 22.8845 64.343 23.1725 64.655C23.4605 64.967 23.6045 65.399 23.6045 65.951L23.6405 67.859C23.6885 69.539 23.7125 70.799 23.7125 71.639L23.6765 73.367C23.6765 75.911 23.7725 79.127 23.9645 83.015C24.0605 84.767 24.1445 86.123 24.2165 87.083C24.2405 87.515 24.1685 87.827 24.0005 88.019C23.8565 88.211 23.6045 88.331 23.2445 88.379C22.4525 88.427 22.0325 88.055 21.9845 87.263C22.0565 86.567 22.0925 85.871 22.0925 85.175C22.0925 84.479 22.0805 83.903 22.0565 83.447L22.0205 79.343C22.0205 77.351 21.9845 75.311 21.9125 73.223C21.8645 71.495 21.7925 69.863 21.6965 68.327C21.6005 66.791 21.5045 65.855 21.4085 65.519C21.2645 65.543 20.9645 65.603 20.5085 65.699C20.0525 65.795 19.4285 65.879 18.6365 65.951C18.5645 67.055 18.5285 67.847 18.5285 68.327C18.5285 68.879 18.5645 69.359 18.6365 69.767C18.6845 70.415 18.7325 71.363 18.7805 72.611V73.403C18.7805 77.291 18.7445 79.919 18.6725 81.287C18.6245 81.671 18.6005 81.971 18.6005 82.187C18.5045 83.195 18.4085 83.963 18.3125 84.491C18.0725 85.763 17.3405 87.059 16.1165 88.379C15.7805 88.763 15.2405 88.979 14.4965 89.027H14.4245ZM29.9261 88.163C29.6141 88.067 29.4461 87.863 29.4221 87.551V87.011C29.3741 86.003 29.3261 84.491 29.2781 82.475C29.1821 80.723 29.1221 79.379 29.0981 78.443C29.0261 76.979 28.9421 74.783 28.8461 71.855C28.8221 71.351 28.7981 70.655 28.7741 69.767C28.7501 68.879 28.7381 68.207 28.7381 67.751C28.7141 67.487 28.7021 67.115 28.7021 66.635C28.7021 66.083 28.7261 65.675 28.7741 65.411C28.8701 64.667 29.2781 64.319 29.9981 64.367C30.6701 64.367 31.0301 64.751 31.0781 65.519V65.951L31.0421 75.023V79.307V81.467C31.0421 81.803 31.0661 82.199 31.1141 82.655C31.1621 83.087 31.1981 83.399 31.2221 83.591C31.3421 82.895 31.5341 82.187 31.7981 81.467C32.0861 80.723 32.2661 80.267 32.3381 80.099C32.6981 79.235 32.9621 78.527 33.1301 77.975C33.7061 76.127 34.4501 73.859 35.3621 71.171C35.5541 70.619 35.7701 69.947 36.0101 69.155C36.6581 67.115 37.1021 65.795 37.3421 65.195C37.5581 64.619 37.8821 64.259 38.3141 64.115C38.5301 64.043 38.7461 64.007 38.9621 64.007C39.2981 64.007 39.6461 64.115 40.0061 64.331V66.059C40.0061 67.859 40.0421 69.719 40.1141 71.639C40.1381 72.047 40.1501 72.659 40.1501 73.475V74.519C40.1501 74.735 40.1381 75.023 40.1141 75.383C40.1141 75.743 40.1261 76.163 40.1501 76.643L40.2581 86.363C40.2581 86.723 40.1741 87.119 40.0061 87.551C39.9341 87.743 39.8141 87.899 39.6461 88.019C39.4781 88.115 39.2981 88.163 39.1061 88.163C38.4341 88.163 38.0981 87.851 38.0981 87.227C38.0981 86.507 38.1341 85.811 38.2061 85.139C38.2541 84.227 38.2781 83.531 38.2781 83.051C38.2301 78.299 38.1701 74.747 38.0981 72.395C38.0981 72.035 38.0501 71.447 37.9541 70.631L37.8461 69.335C37.6301 69.575 37.5101 69.731 37.4861 69.803L36.9101 71.567C36.5261 72.815 36.2261 73.739 36.0101 74.339L32.8781 83.051L31.2581 87.479C31.0661 87.983 30.7781 88.235 30.3941 88.235C30.3221 88.235 30.1661 88.211 29.9261 88.163ZM46.0704 88.307C45.9744 88.283 45.8184 88.259 45.6024 88.235C45.3864 88.211 45.2064 88.151 45.0624 88.055C44.7024 87.815 44.5584 87.407 44.6304 86.831L44.6664 86.039C44.7624 84.743 44.8104 83.771 44.8104 83.123C44.8104 79.355 44.7744 75.563 44.7024 71.747C44.7024 69.779 44.6424 67.691 44.5224 65.483C44.4984 65.099 44.5824 64.775 44.7744 64.511C44.9904 64.247 45.2544 64.115 45.5664 64.115C45.8544 64.115 46.1424 64.247 46.4304 64.511C46.7424 64.775 46.8864 65.087 46.8624 65.447C46.6944 66.167 46.6104 67.607 46.6104 69.767V72.647C46.6104 73.175 46.6344 74.015 46.6824 75.167C46.7544 75.071 46.9824 74.627 47.3664 73.835C47.4144 73.739 47.4984 73.595 47.6184 73.403C47.7384 73.187 47.8224 72.971 47.8704 72.755C48.6624 70.355 49.3104 68.507 49.8144 67.211C50.0304 66.515 50.3184 65.927 50.6784 65.447C51.0384 64.943 51.5304 64.595 52.1544 64.403C52.3704 64.331 52.6584 64.355 53.0184 64.475C53.4024 64.595 53.6544 64.739 53.7744 64.907C53.9184 65.075 53.9904 65.279 53.9904 65.519C53.9904 65.759 53.9064 65.975 53.7384 66.167C53.5944 66.359 53.4024 66.479 53.1624 66.527C52.5624 66.623 52.0944 66.839 51.7584 67.175C51.4224 67.511 51.1704 67.871 51.0024 68.255C50.8584 68.615 50.6784 69.167 50.4624 69.911L49.0224 73.439C48.9504 73.607 48.8424 73.895 48.6984 74.303C48.5784 74.711 48.4584 75.023 48.3384 75.239C48.2904 75.311 48.2184 75.383 48.1224 75.455C48.0264 75.527 47.9424 75.599 47.8704 75.671C48.0384 75.551 48.2544 75.587 48.5184 75.779C48.8064 75.971 49.0944 76.235 49.3824 76.571C49.5744 76.955 49.7064 77.375 49.7784 77.831C49.8744 78.287 49.9344 78.551 49.9584 78.623C50.0064 79.007 50.0544 79.295 50.1024 79.487C50.3904 80.255 50.5944 80.963 50.7144 81.611C50.8344 82.235 50.9184 82.979 50.9664 83.843C51.0384 84.707 51.2784 85.463 51.6864 86.111C51.8064 86.135 51.9384 86.159 52.0824 86.183C52.2504 86.207 52.4304 86.231 52.6224 86.255C53.0064 86.279 53.2584 86.519 53.3784 86.975C53.4024 87.023 53.4144 87.107 53.4144 87.227C53.4144 87.491 53.2944 87.743 53.0544 87.983C52.6944 88.343 52.2384 88.523 51.6864 88.523C51.2784 88.523 50.8824 88.415 50.4984 88.199C50.1384 87.983 49.8744 87.695 49.7064 87.335C49.5624 87.095 49.4424 86.771 49.3464 86.363C49.1784 85.331 49.0344 84.287 48.9144 83.231C48.8184 81.767 48.7104 80.663 48.5904 79.919C48.4944 79.151 48.2664 78.419 47.9064 77.723C47.8104 77.555 47.7144 77.435 47.6184 77.363C47.5224 77.267 47.3904 77.219 47.2224 77.219C47.0784 77.219 46.8984 77.255 46.6824 77.327C46.6344 79.055 46.6104 80.735 46.6104 82.367C46.6104 83.399 46.6584 84.971 46.7544 87.083C46.7784 87.347 46.7304 87.563 46.6104 87.731C46.5144 87.875 46.3344 88.067 46.0704 88.307Z" fill="black"/>
</svg>
