<svg width="25" height="23" viewBox="0 0 25 23" fill="none" xmlns="http://www.w3.org/2000/svg">
<path d="M23 9.67892C23.8284 9.67892 24.5 10.3505 24.5 11.1789C24.5 12.0074 23.8284 12.6789 23 12.6789V9.67892ZM0.939341 12.2396C0.353554 11.6538 0.353554 10.7041 0.939341 10.1183L10.4853 0.572323C11.0711 -0.013464 12.0208 -0.013464 12.6066 0.572323C13.1924 1.15811 13.1924 2.10786 12.6066 2.69364L4.12132 11.1789L12.6066 19.6642C13.1924 20.25 13.1924 21.1997 12.6066 21.7855C12.0208 22.3713 11.0711 22.3713 10.4853 21.7855L0.939341 12.2396ZM23 12.6789H2V9.67892H23V12.6789Z" fill="black"/>
</svg>
