<svg width="244" height="246" viewBox="0 0 244 246" fill="none" xmlns="http://www.w3.org/2000/svg">
<g clip-path="url(#clip0_497_356)">
<path d="M3.74813 163.607C11.8009 147.318 22.3475 132.386 35.0069 119.351C47.653 106.29 62.2144 95.2316 78.1904 86.5557C94.1023 77.9355 111.279 71.8891 129.082 68.6408C164.633 62.2393 201.29 66.8021 234.187 81.7235C236.235 82.6631 238.263 83.6421 240.27 84.6605C242.168 85.6521 243.718 82.6989 241.814 81.7042C225.409 73.4166 207.819 67.7222 189.669 64.8239C171.639 61.9196 153.274 61.7453 135.192 64.3069C116.981 66.9041 99.2929 72.3536 82.7777 80.4551C66.1281 88.6727 50.8385 99.3972 37.4428 112.254C24.069 125.024 12.7561 139.791 3.907 156.028C2.82106 158.03 1.76767 160.046 0.746849 162.077C-0.197455 163.999 2.75571 165.55 3.7031 163.621L3.74813 163.607Z" fill="#40CAF5"/>
</g>
<defs>
<clipPath id="clip0_497_356">
<rect width="178.072" height="184.429" fill="white" transform="translate(85.4048) rotate(27.5858)"/>
</clipPath>
</defs>
</svg>
