<svg width="205" height="102" viewBox="0 0 205 102" fill="none" xmlns="http://www.w3.org/2000/svg">
<path d="M204.294 70.6423C204.341 71.1926 203.933 71.6768 203.383 71.7239L194.416 72.4912C193.865 72.5383 193.381 72.1304 193.334 71.5801C193.287 71.0298 193.695 70.5456 194.245 70.4985L202.216 69.8164L201.534 61.8456C201.487 61.2953 201.895 60.811 202.445 60.764C202.995 60.7169 203.479 61.1248 203.527 61.6751L204.294 70.6423ZM76 31.9319C75.7556 30.9622 75.7564 30.962 75.7574 30.9618C75.758 30.9616 75.7592 30.9613 75.7605 30.961C75.7631 30.9603 75.7666 30.9595 75.7711 30.9583C75.7801 30.9561 75.7928 30.953 75.8094 30.949C75.8424 30.9409 75.8905 30.9294 75.9535 30.9147C76.0794 30.8852 76.2647 30.843 76.5074 30.7907C76.993 30.686 77.7086 30.541 78.6395 30.3766C80.5014 30.0477 83.225 29.6413 86.6923 29.3261C93.6264 28.6958 103.538 28.4297 115.483 29.8792C139.379 32.7791 171.392 42.5447 203.942 69.9627L202.653 71.4924C170.439 44.3563 138.803 34.724 115.242 31.8646C103.457 30.4345 93.6881 30.6984 86.8733 31.3179C83.4662 31.6277 80.7984 32.0262 78.9874 32.3461C78.082 32.506 77.3908 32.6462 76.9287 32.7458C76.6977 32.7956 76.5239 32.8352 76.4092 32.862C76.3519 32.8755 76.3093 32.8857 76.2818 32.8924C76.268 32.8957 76.258 32.8982 76.2517 32.8997C76.2486 32.9005 76.2464 32.9011 76.2452 32.9014C76.2446 32.9015 76.2444 32.9016 76.2441 32.9016C76.2441 32.9016 76.2444 32.9016 76 31.9319Z" fill="black"/>
<path d="M3.672 42.0722C3.576 42.0482 3.42 42.0242 3.204 42.0002C2.988 41.9762 2.808 41.9162 2.664 41.8202C2.304 41.5802 2.16 41.1722 2.232 40.5962L2.268 39.8042C2.364 38.5082 2.412 37.5362 2.412 36.8882C2.412 33.1202 2.376 29.3282 2.304 25.5122C2.304 23.5442 2.244 21.4562 2.124 19.2482C2.1 18.8642 2.184 18.5402 2.376 18.2762C2.592 18.0122 2.856 17.8802 3.168 17.8802C3.456 17.8802 3.744 18.0122 4.032 18.2762C4.344 18.5402 4.488 18.8522 4.464 19.2122C4.296 19.9322 4.212 21.3722 4.212 23.5322V26.4122C4.212 26.9402 4.236 27.7802 4.284 28.9322C4.356 28.8362 4.584 28.3922 4.968 27.6002C5.016 27.5042 5.1 27.3602 5.22 27.1682C5.34 26.9522 5.424 26.7362 5.472 26.5202C6.264 24.1202 6.912 22.2722 7.416 20.9762C7.632 20.2802 7.92 19.6922 8.28 19.2122C8.64 18.7082 9.132 18.3602 9.756 18.1682C9.972 18.0962 10.26 18.1202 10.62 18.2402C11.004 18.3602 11.256 18.5042 11.376 18.6722C11.52 18.8402 11.592 19.0442 11.592 19.2842C11.592 19.5242 11.508 19.7402 11.34 19.9322C11.196 20.1242 11.004 20.2442 10.764 20.2922C10.164 20.3882 9.696 20.6042 9.36 20.9402C9.024 21.2762 8.772 21.6362 8.604 22.0202C8.46 22.3802 8.28 22.9322 8.064 23.6762L6.624 27.2042C6.552 27.3722 6.444 27.6602 6.3 28.0682C6.18 28.4762 6.06 28.7882 5.94 29.0042C5.892 29.0762 5.82 29.1482 5.724 29.2202C5.628 29.2922 5.544 29.3642 5.472 29.4362C5.64 29.3162 5.856 29.3522 6.12 29.5442C6.408 29.7362 6.696 30.0002 6.984 30.3362C7.176 30.7202 7.308 31.1402 7.38 31.5962C7.476 32.0522 7.536 32.3162 7.56 32.3882C7.608 32.7722 7.656 33.0602 7.704 33.2522C7.992 34.0202 8.196 34.7282 8.316 35.3762C8.436 36.0002 8.52 36.7442 8.568 37.6082C8.64 38.4722 8.88 39.2282 9.288 39.8762C9.408 39.9002 9.54 39.9242 9.684 39.9482C9.852 39.9722 10.032 39.9962 10.224 40.0202C10.608 40.0442 10.86 40.2842 10.98 40.7402C11.004 40.7882 11.016 40.8722 11.016 40.9922C11.016 41.2562 10.896 41.5082 10.656 41.7482C10.296 42.1082 9.84 42.2882 9.288 42.2882C8.88 42.2882 8.484 42.1802 8.1 41.9642C7.74 41.7482 7.476 41.4602 7.308 41.1002C7.164 40.8602 7.044 40.5362 6.948 40.1282C6.78 39.0962 6.636 38.0522 6.516 36.9962C6.42 35.5322 6.312 34.4282 6.192 33.6842C6.096 32.9162 5.868 32.1842 5.508 31.4882C5.412 31.3202 5.316 31.2002 5.22 31.1282C5.124 31.0322 4.992 30.9842 4.824 30.9842C4.68 30.9842 4.5 31.0202 4.284 31.0922C4.236 32.8202 4.212 34.5002 4.212 36.1322C4.212 37.1642 4.26 38.7362 4.356 40.8482C4.38 41.1122 4.332 41.3282 4.212 41.4962C4.116 41.6402 3.936 41.8322 3.672 42.0722ZM14.4245 42.7922C14.2325 42.7922 14.0645 42.7322 13.9205 42.6122C13.7765 42.4922 13.6685 42.3362 13.5965 42.1442C13.5725 42.0962 13.5605 42.0242 13.5605 41.9282C13.5605 41.6162 13.7285 41.3642 14.0645 41.1722C14.7365 40.8842 15.2405 40.4522 15.5765 39.8762C15.9365 39.2762 16.1885 38.5802 16.3325 37.7882C16.7645 35.4362 16.9805 32.8802 16.9805 30.1202C16.9805 29.0882 16.9685 28.3082 16.9445 27.7802C16.7765 23.7242 16.6325 20.8682 16.5125 19.2122V19.0682C16.5125 18.8522 16.5605 18.6842 16.6565 18.5642C16.7525 18.4442 16.9205 18.3602 17.1605 18.3122C18.6965 18.0242 19.9205 17.8802 20.8325 17.8802C21.3125 17.8802 21.6725 17.8922 21.9125 17.9162C22.4645 17.9402 22.8845 18.1082 23.1725 18.4202C23.4605 18.7322 23.6045 19.1642 23.6045 19.7162L23.6405 21.6242C23.6885 23.3042 23.7125 24.5642 23.7125 25.4042L23.6765 27.1322C23.6765 29.6762 23.7725 32.8922 23.9645 36.7802C24.0605 38.5322 24.1445 39.8882 24.2165 40.8482C24.2405 41.2802 24.1685 41.5922 24.0005 41.7842C23.8565 41.9762 23.6045 42.0962 23.2445 42.1442C22.4525 42.1922 22.0325 41.8202 21.9845 41.0282C22.0565 40.3322 22.0925 39.6362 22.0925 38.9402C22.0925 38.2442 22.0805 37.6682 22.0565 37.2122L22.0205 33.1082C22.0205 31.1162 21.9845 29.0762 21.9125 26.9882C21.8645 25.2602 21.7925 23.6282 21.6965 22.0922C21.6005 20.5562 21.5045 19.6202 21.4085 19.2842C21.2645 19.3082 20.9645 19.3682 20.5085 19.4642C20.0525 19.5602 19.4285 19.6442 18.6365 19.7162C18.5645 20.8202 18.5285 21.6122 18.5285 22.0922C18.5285 22.6442 18.5645 23.1242 18.6365 23.5322C18.6845 24.1802 18.7325 25.1282 18.7805 26.3762V27.1682C18.7805 31.0562 18.7445 33.6842 18.6725 35.0522C18.6245 35.4362 18.6005 35.7362 18.6005 35.9522C18.5045 36.9602 18.4085 37.7282 18.3125 38.2562C18.0725 39.5282 17.3405 40.8242 16.1165 42.1442C15.7805 42.5282 15.2405 42.7442 14.4965 42.7922H14.4245ZM29.9261 41.9282C29.6141 41.8322 29.4461 41.6282 29.4221 41.3162V40.7762C29.3741 39.7682 29.3261 38.2562 29.2781 36.2402C29.1821 34.4882 29.1221 33.1442 29.0981 32.2082C29.0261 30.7442 28.9421 28.5482 28.8461 25.6202C28.8221 25.1162 28.7981 24.4202 28.7741 23.5322C28.7501 22.6442 28.7381 21.9722 28.7381 21.5162C28.7141 21.2522 28.7021 20.8802 28.7021 20.4002C28.7021 19.8482 28.7261 19.4402 28.7741 19.1762C28.8701 18.4322 29.2781 18.0842 29.9981 18.1322C30.6701 18.1322 31.0301 18.5162 31.0781 19.2842V19.7162L31.0421 28.7882V33.0722V35.2322C31.0421 35.5682 31.0661 35.9642 31.1141 36.4202C31.1621 36.8522 31.1981 37.1642 31.2221 37.3562C31.3421 36.6602 31.5341 35.9522 31.7981 35.2322C32.0861 34.4882 32.2661 34.0322 32.3381 33.8642C32.6981 33.0002 32.9621 32.2922 33.1301 31.7402C33.7061 29.8922 34.4501 27.6242 35.3621 24.9362C35.5541 24.3842 35.7701 23.7122 36.0101 22.9202C36.6581 20.8802 37.1021 19.5602 37.3421 18.9602C37.5581 18.3842 37.8821 18.0242 38.3141 17.8802C38.5301 17.8082 38.7461 17.7722 38.9621 17.7722C39.2981 17.7722 39.6461 17.8802 40.0061 18.0962V19.8242C40.0061 21.6242 40.0421 23.4842 40.1141 25.4042C40.1381 25.8122 40.1501 26.4242 40.1501 27.2402V28.2842C40.1501 28.5002 40.1381 28.7882 40.1141 29.1482C40.1141 29.5082 40.1261 29.9282 40.1501 30.4082L40.2581 40.1282C40.2581 40.4882 40.1741 40.8842 40.0061 41.3162C39.9341 41.5082 39.8141 41.6642 39.6461 41.7842C39.4781 41.8802 39.2981 41.9282 39.1061 41.9282C38.4341 41.9282 38.0981 41.6162 38.0981 40.9922C38.0981 40.2722 38.1341 39.5762 38.2061 38.9042C38.2541 37.9922 38.2781 37.2962 38.2781 36.8162C38.2301 32.0642 38.1701 28.5122 38.0981 26.1602C38.0981 25.8002 38.0501 25.2122 37.9541 24.3962L37.8461 23.1002C37.6301 23.3402 37.5101 23.4962 37.4861 23.5682L36.9101 25.3322C36.5261 26.5802 36.2261 27.5042 36.0101 28.1042L32.8781 36.8162L31.2581 41.2442C31.0661 41.7482 30.7781 42.0002 30.3941 42.0002C30.3221 42.0002 30.1661 41.9762 29.9261 41.9282ZM46.0704 42.0722C45.9744 42.0482 45.8184 42.0242 45.6024 42.0002C45.3864 41.9762 45.2064 41.9162 45.0624 41.8202C44.7024 41.5802 44.5584 41.1722 44.6304 40.5962L44.6664 39.8042C44.7624 38.5082 44.8104 37.5362 44.8104 36.8882C44.8104 33.1202 44.7744 29.3282 44.7024 25.5122C44.7024 23.5442 44.6424 21.4562 44.5224 19.2482C44.4984 18.8642 44.5824 18.5402 44.7744 18.2762C44.9904 18.0122 45.2544 17.8802 45.5664 17.8802C45.8544 17.8802 46.1424 18.0122 46.4304 18.2762C46.7424 18.5402 46.8864 18.8522 46.8624 19.2122C46.6944 19.9322 46.6104 21.3722 46.6104 23.5322V26.4122C46.6104 26.9402 46.6344 27.7802 46.6824 28.9322C46.7544 28.8362 46.9824 28.3922 47.3664 27.6002C47.4144 27.5042 47.4984 27.3602 47.6184 27.1682C47.7384 26.9522 47.8224 26.7362 47.8704 26.5202C48.6624 24.1202 49.3104 22.2722 49.8144 20.9762C50.0304 20.2802 50.3184 19.6922 50.6784 19.2122C51.0384 18.7082 51.5304 18.3602 52.1544 18.1682C52.3704 18.0962 52.6584 18.1202 53.0184 18.2402C53.4024 18.3602 53.6544 18.5042 53.7744 18.6722C53.9184 18.8402 53.9904 19.0442 53.9904 19.2842C53.9904 19.5242 53.9064 19.7402 53.7384 19.9322C53.5944 20.1242 53.4024 20.2442 53.1624 20.2922C52.5624 20.3882 52.0944 20.6042 51.7584 20.9402C51.4224 21.2762 51.1704 21.6362 51.0024 22.0202C50.8584 22.3802 50.6784 22.9322 50.4624 23.6762L49.0224 27.2042C48.9504 27.3722 48.8424 27.6602 48.6984 28.0682C48.5784 28.4762 48.4584 28.7882 48.3384 29.0042C48.2904 29.0762 48.2184 29.1482 48.1224 29.2202C48.0264 29.2922 47.9424 29.3642 47.8704 29.4362C48.0384 29.3162 48.2544 29.3522 48.5184 29.5442C48.8064 29.7362 49.0944 30.0002 49.3824 30.3362C49.5744 30.7202 49.7064 31.1402 49.7784 31.5962C49.8744 32.0522 49.9344 32.3162 49.9584 32.3882C50.0064 32.7722 50.0544 33.0602 50.1024 33.2522C50.3904 34.0202 50.5944 34.7282 50.7144 35.3762C50.8344 36.0002 50.9184 36.7442 50.9664 37.6082C51.0384 38.4722 51.2784 39.2282 51.6864 39.8762C51.8064 39.9002 51.9384 39.9242 52.0824 39.9482C52.2504 39.9722 52.4304 39.9962 52.6224 40.0202C53.0064 40.0442 53.2584 40.2842 53.3784 40.7402C53.4024 40.7882 53.4144 40.8722 53.4144 40.9922C53.4144 41.2562 53.2944 41.5082 53.0544 41.7482C52.6944 42.1082 52.2384 42.2882 51.6864 42.2882C51.2784 42.2882 50.8824 42.1802 50.4984 41.9642C50.1384 41.7482 49.8744 41.4602 49.7064 41.1002C49.5624 40.8602 49.4424 40.5362 49.3464 40.1282C49.1784 39.0962 49.0344 38.0522 48.9144 36.9962C48.8184 35.5322 48.7104 34.4282 48.5904 33.6842C48.4944 32.9162 48.2664 32.1842 47.9064 31.4882C47.8104 31.3202 47.7144 31.2002 47.6184 31.1282C47.5224 31.0322 47.3904 30.9842 47.2224 30.9842C47.0784 30.9842 46.8984 31.0202 46.6824 31.0922C46.6344 32.8202 46.6104 34.5002 46.6104 36.1322C46.6104 37.1642 46.6584 38.7362 46.7544 40.8482C46.7784 41.1122 46.7304 41.3282 46.6104 41.4962C46.5144 41.6402 46.3344 41.8322 46.0704 42.0722Z" fill="black"/>
</svg>
