<svg width="229" height="165" viewBox="0 0 229 165" fill="none" xmlns="http://www.w3.org/2000/svg">
<g clip-path="url(#clip0_497_352)">
<path d="M1.99002 1.83C-0.809977 20.06 -1.13001 38.99 4.13999 56.83C8.43999 71.38 16.65 85.19 28.5 94.83C40.59 104.69 56.23 109.83 71.82 107.75C79.6049 106.862 87.0352 104.006 93.4099 99.45C99.7199 94.74 105.02 87.45 103.55 79.23C102.14 71.3 94.43 66.23 86.86 65.47C79 64.7 71.11 68.14 65.1 72.99C54.61 81.45 49.3 95.54 49.73 108.81C50.2 123.35 57.9 136.69 68.73 146.11C81.01 156.83 96.4699 162.43 112.54 164.16C130.39 166.08 148.65 163.45 166.01 159.26C183.237 155.08 199.91 148.877 215.68 140.78C219.547 138.78 223.357 136.677 227.11 134.47C229.88 132.83 227.37 128.47 224.59 130.15C210.28 138.599 195.056 145.393 179.21 150.4C163.21 155.4 146.5 158.97 129.73 159.66C113.95 160.31 97.6699 158.15 83.6599 150.47C71.9599 144.05 61.7199 133.96 57.1599 121.2C55.1211 115.436 54.3655 109.295 54.9458 103.209C55.5262 97.1219 57.4286 91.2353 60.5201 85.96C63.4986 80.8409 67.785 76.6061 72.94 73.69C79.1 70.29 87.1699 68.75 93.4099 72.79C96.0339 74.4277 97.9143 77.0257 98.6501 80.03C99.1939 83.1763 98.4753 86.4101 96.6501 89.03C92.9201 94.95 86.1801 98.77 79.6501 100.9C66.1401 105.33 50.91 103.15 38.76 95.9C26.61 88.65 17.6 77.09 12.08 64.23C5.52999 48.96 4.14999 31.93 5.38999 15.51C5.70332 11.3833 6.1767 7.27 6.81003 3.17C6.96409 2.53036 6.86894 1.85608 6.54392 1.28404C6.21889 0.712003 5.68837 0.28507 5.06003 0.0899807C4.42096 -0.081964 3.73984 0.00546578 3.16489 0.333206C2.58994 0.660946 2.16768 1.20247 1.99002 1.83998V1.83Z" fill="#40F573"/>
</g>
<defs>
<clipPath id="clip0_497_352">
<rect width="228.28" height="164.8" fill="white"/>
</clipPath>
</defs>
</svg>
