<svg width="265" height="58" viewBox="0 0 265 58" fill="none" xmlns="http://www.w3.org/2000/svg">
<g clip-path="url(#clip0_210_28)">
<path fill-rule="evenodd" clip-rule="evenodd" d="M31.8529 0.158086C25.896 -0.469392 19.891 0.763518 14.6633 3.68735C9.43554 6.61118 5.2417 11.0824 2.65821 16.4864C0.0747215 21.8905 -0.771593 27.962 0.235594 33.8666C1.24278 39.7711 4.05403 45.2188 8.28292 49.4608C12.5118 53.7028 17.9508 56.5309 23.8522 57.5563C29.7536 58.5817 35.8277 57.7542 41.2397 55.1874C46.6517 52.6207 51.1359 48.4407 54.0759 43.222C57.0159 38.0034 58.2673 32.0022 57.6583 26.0434C56.9881 19.4198 54.056 13.2295 49.3558 8.51474C44.6556 3.79998 38.4743 0.848786 31.8529 0.158086ZM30.9134 44.3345C27.7096 44.7643 24.4517 44.1794 21.5975 42.662C18.7433 41.1446 16.4363 38.771 15.0008 35.8747C13.5653 32.9785 13.0734 29.7052 13.5942 26.515C14.1151 23.3247 15.6225 20.3779 17.9047 18.0886C20.1868 15.7993 23.1289 14.2827 26.3175 13.7519C29.5061 13.221 32.7809 13.7027 35.6816 15.1291C38.5823 16.5556 40.9631 18.8551 42.4895 21.7046C44.0158 24.554 44.6109 27.8101 44.1911 31.0152C43.7506 34.3864 42.211 37.5184 39.8107 39.9262C37.4104 42.3341 34.2832 43.8835 30.9134 44.3345ZM73.1654 1.30508C72.1598 1.30748 71.1674 1.53404 70.2604 1.96826C69.3534 2.40249 68.5547 3.03345 67.9222 3.81524C67.2898 4.59703 66.8396 5.50998 66.6044 6.48767C66.3692 7.46535 66.355 8.48317 66.5627 9.46706C67.1988 12.6545 70.1761 14.8325 73.4194 14.8325H92.241L62.9503 53.5948C62.7337 53.8809 62.601 54.2218 62.5673 54.5791C62.5335 54.9364 62.5999 55.2961 62.7591 55.6177C62.9182 55.9394 63.1639 56.2104 63.4684 56.4004C63.773 56.5903 64.1244 56.6916 64.4833 56.693H110.429C113.67 56.693 116.649 54.5156 117.285 51.3276C117.493 50.3439 117.479 49.3262 117.244 48.3486C117.009 47.371 116.559 46.4581 115.927 45.6763C115.295 44.8944 114.496 44.2633 113.59 43.8288C112.683 43.3943 111.691 43.1674 110.685 43.1645H87.7527L117.021 4.43234C117.24 4.1434 117.374 3.79922 117.408 3.43842C117.442 3.07761 117.375 2.71446 117.214 2.3897C117.053 2.06495 116.805 1.79143 116.497 1.59985C116.189 1.40827 115.835 1.30619 115.472 1.30508H73.1654ZM256.76 1.46111C255.239 1.82282 253.887 2.69281 252.927 3.92725C251.968 5.16169 251.458 6.68665 251.483 8.24999V30.7726L214.988 1.73048C214.702 1.5033 214.357 1.36152 213.994 1.32147C213.631 1.28141 213.264 1.3447 212.935 1.50405C212.606 1.6634 212.329 1.91234 212.135 2.22224C211.941 2.53213 211.839 2.89038 211.84 3.25578V49.7601C211.815 51.3235 212.325 52.8485 213.285 54.083C214.244 55.3174 215.596 56.1874 217.117 56.549C218.105 56.7664 219.129 56.7592 220.114 56.528C221.098 56.2968 222.019 55.8475 222.806 55.2133C223.594 54.5791 224.23 53.7761 224.666 52.8635C225.102 51.951 225.327 50.9522 225.326 49.9408V27.2233L261.822 56.266C262.108 56.493 262.452 56.6347 262.815 56.6747C263.178 56.7147 263.545 56.6514 263.874 56.4922C264.203 56.3329 264.48 56.084 264.673 55.7743C264.867 55.4645 264.969 55.1065 264.968 54.7412V8.06713C264.969 7.05598 264.743 6.05749 264.307 5.14527C263.871 4.23304 263.236 3.43035 262.448 2.79638C261.66 2.16241 260.74 1.71331 259.756 1.48222C258.771 1.25112 257.748 1.24391 256.76 1.46111ZM161.737 13.5376C177.173 13.5376 188.707 21.6952 188.707 28.9922C188.707 36.2891 177.173 44.4467 161.737 44.4467C146.3 44.4467 134.766 36.2891 134.766 28.9922C134.766 21.6952 146.3 13.5376 161.737 13.5376ZM161.737 0.0108112C139.393 0.0108112 121.28 12.9863 121.28 28.9922C121.28 44.9981 139.393 57.9736 161.737 57.9736C184.08 57.9736 202.192 44.9981 202.192 28.9922C202.192 12.9863 184.08 0.0108112 161.737 0.0108112Z" fill="#0069FF"/>
</g>
<defs>
<clipPath id="clip0_210_28">
<rect width="264.968" height="58" fill="white"/>
</clipPath>
</defs>
</svg>
