<svg width="73" height="74" viewBox="0 0 73 74" fill="none" xmlns="http://www.w3.org/2000/svg">
<path d="M70.9722 31.541H41.975V2.02187C41.975 0.808749 41.1639 0 39.9472 0H33.0528C31.8361 0 31.025 0.808749 31.025 2.02187V31.541H2.02778C0.811111 31.541 0 32.3497 0 33.5629V40.4372C0 41.6503 0.811111 42.459 2.02778 42.459H31.025V71.9781C31.025 73.1913 31.8361 74 33.0528 74H39.9472C41.1639 74 41.975 73.1913 41.975 71.9781V42.459H70.9722C72.1889 42.459 73 41.6503 73 40.4372V33.5629C73 32.3497 72.1889 31.541 70.9722 31.541Z" fill="black"/>
</svg>
