<svg width="71" height="33" viewBox="0 0 71 33" fill="none" xmlns="http://www.w3.org/2000/svg">
<path d="M54.6487 25.9419C54.4885 25.9419 54.3175 25.9149 54.1355 25.8607C53.9608 25.8142 53.8262 25.76 53.7315 25.6981C53.2438 25.3653 53 24.4557 53 22.9695V22.656V22.2961V22.0174C53 21.7078 53.0036 21.433 53.0109 21.193C53.0182 20.9453 53.0328 20.6783 53.0546 20.3919C53.0764 20.09 53.1092 19.8462 53.1529 19.6604C53.1965 19.4669 53.2693 19.2501 53.3712 19.0102C53.4586 18.7857 53.5641 18.6115 53.6879 18.4877C53.8189 18.3638 53.9863 18.2593 54.1901 18.1742C54.3721 18.089 54.5977 18.0464 54.8671 18.0464C54.9762 18.0464 55.0599 18.0735 55.1182 18.1277C55.1764 18.1819 55.2055 18.2516 55.2055 18.3367C55.2055 18.4141 55.1801 18.4838 55.1291 18.5457C55.0854 18.6076 55.0308 18.6425 54.9653 18.6502H54.4522C54.3066 18.6502 54.1792 18.747 54.07 18.9405C53.9608 19.134 53.8844 19.3856 53.8407 19.6952C53.7461 20.268 53.6988 20.7325 53.6988 21.0885V21.1466L53.6769 22.2612C53.6624 22.5941 53.6551 22.9695 53.6551 23.3875C53.6551 23.6817 53.666 23.9216 53.6879 24.1074C53.7243 24.3861 53.7861 24.6183 53.8735 24.8041C53.9608 25.0131 54.11 25.164 54.3211 25.2569C54.4303 25.3033 54.5504 25.3266 54.6814 25.3266C54.7615 25.3266 54.8416 25.2956 54.9216 25.2337C55.0163 25.2337 55.0927 25.2569 55.1509 25.3033C55.2164 25.342 55.2492 25.404 55.2492 25.4891C55.2492 25.791 55.049 25.9419 54.6487 25.9419Z" fill="black"/>
<path d="M56.7374 25.9303C56.6427 25.9303 56.5554 25.8955 56.4753 25.8258C56.4025 25.7562 56.3625 25.671 56.3552 25.5704V25.2685V25.0363C56.3479 24.9666 56.3443 24.8853 56.3443 24.7925C56.3443 24.6299 56.3334 24.3822 56.3115 24.0493L56.2897 23.3062C56.2897 22.9269 56.3006 22.3619 56.3224 21.611C56.3516 20.9376 56.3661 20.3725 56.3661 19.9158C56.3661 19.8075 56.3552 19.6449 56.3334 19.4282C56.3115 19.2037 56.3006 19.0411 56.3006 18.9405C56.3006 18.3909 56.4535 18.1161 56.7592 18.1161C56.9994 18.1161 57.276 18.1664 57.589 18.2671C57.9093 18.3677 58.0694 18.4877 58.0694 18.627C58.0694 18.7044 58.0366 18.7779 57.9711 18.8476C57.9129 18.9095 57.8401 18.9598 57.7528 18.9985C57.4471 18.8824 57.1704 18.805 56.923 18.7663C56.9302 18.8824 56.9339 19.0489 56.9339 19.2656C56.9339 19.5752 56.9302 19.8539 56.923 20.1016C56.9011 20.4731 56.8902 20.7518 56.8902 20.9376L56.923 21.1234L57.0977 21.1118C57.1559 21.104 57.2287 21.1001 57.316 21.1001C57.6654 21.1001 57.8401 21.2085 57.8401 21.4253C57.8401 21.5104 57.8074 21.5839 57.7418 21.6459C57.6763 21.7 57.5926 21.7271 57.4907 21.7271C57.3597 21.7271 57.2578 21.7194 57.185 21.7039H56.912C56.9266 21.9052 56.9339 22.1993 56.9339 22.5864C56.9339 22.9734 56.9302 23.3217 56.923 23.6313C56.9011 24.1035 56.8902 24.4557 56.8902 24.688C56.8902 25.1214 56.8975 25.3382 56.912 25.3382L57.2724 25.3266C57.3961 25.3188 57.5453 25.3149 57.72 25.3149C57.9966 25.3149 58.1349 25.4078 58.1349 25.5936C58.1349 25.702 58.0876 25.7833 57.993 25.8374C57.9056 25.8994 57.7964 25.9303 57.6654 25.9303H56.7374Z" fill="black"/>
<path d="M59.7856 25.8026C59.7564 25.7949 59.7091 25.7871 59.6436 25.7794C59.5781 25.7717 59.5235 25.7523 59.4798 25.7213C59.3707 25.6439 59.327 25.5123 59.3488 25.3266L59.3597 25.0711C59.3889 24.6531 59.4034 24.3396 59.4034 24.1306C59.4034 22.9153 59.3925 21.6923 59.3707 20.4615C59.3707 19.8268 59.3525 19.1534 59.3161 18.4412C59.3088 18.3174 59.3343 18.2129 59.3925 18.1277C59.458 18.0426 59.5381 18 59.6327 18C59.72 18 59.8074 18.0426 59.8947 18.1277C59.9894 18.2129 60.033 18.3135 60.0258 18.4296C59.9748 18.6618 59.9493 19.1263 59.9493 19.8229V20.7518C59.9493 20.9221 59.9566 21.193 59.9712 21.5646C59.993 21.5336 60.0622 21.3904 60.1786 21.135C60.1932 21.104 60.2187 21.0576 60.2551 20.9956C60.2914 20.926 60.3169 20.8563 60.3315 20.7866C60.5717 20.0126 60.7682 19.4165 60.9211 18.9985C60.9866 18.7741 61.0739 18.5844 61.1831 18.4296C61.2923 18.2671 61.4415 18.1548 61.6308 18.0929C61.6963 18.0697 61.7836 18.0774 61.8928 18.1161C62.0093 18.1548 62.0857 18.2013 62.1221 18.2554C62.1658 18.3096 62.1876 18.3754 62.1876 18.4528C62.1876 18.5302 62.1621 18.5999 62.1112 18.6618C62.0675 18.7238 62.0093 18.7625 61.9365 18.7779C61.7545 18.8089 61.6126 18.8786 61.5107 18.9869C61.4088 19.0953 61.3323 19.2114 61.2814 19.3353C61.2377 19.4514 61.1831 19.6294 61.1176 19.8694L60.6809 21.0073C60.659 21.0614 60.6263 21.1543 60.5826 21.2859C60.5462 21.4175 60.5098 21.5181 60.4734 21.5878C60.4589 21.611 60.437 21.6343 60.4079 21.6575C60.3788 21.6807 60.3533 21.7039 60.3315 21.7271C60.3824 21.6884 60.4479 21.7 60.528 21.762C60.6154 21.8239 60.7027 21.909 60.7901 22.0174C60.8483 22.1413 60.8883 22.2767 60.9102 22.4238C60.9393 22.5709 60.9575 22.656 60.9648 22.6792C60.9793 22.8031 60.9939 22.896 61.0084 22.9579C61.0958 23.2056 61.1576 23.434 61.194 23.643C61.2304 23.8442 61.2559 24.0842 61.2705 24.3628C61.2923 24.6415 61.3651 24.8853 61.4888 25.0943C61.5252 25.1021 61.5653 25.1098 61.6089 25.1176C61.6599 25.1253 61.7145 25.133 61.7727 25.1408C61.8892 25.1485 61.9656 25.2259 62.002 25.373C62.0093 25.3885 62.0129 25.4156 62.0129 25.4543C62.0129 25.5394 61.9765 25.6207 61.9037 25.6981C61.7946 25.8142 61.6563 25.8723 61.4888 25.8723C61.3651 25.8723 61.245 25.8374 61.1285 25.7678C61.0193 25.6981 60.9393 25.6052 60.8883 25.4891C60.8446 25.4117 60.8083 25.3072 60.7791 25.1756C60.7282 24.8428 60.6845 24.506 60.6481 24.1655C60.619 23.6933 60.5862 23.3372 60.5499 23.0972C60.5207 22.8495 60.4516 22.6134 60.3424 22.389C60.3133 22.3348 60.2842 22.2961 60.2551 22.2729C60.2259 22.2419 60.1859 22.2264 60.135 22.2264C60.0913 22.2264 60.0367 22.238 59.9712 22.2612C59.9566 22.8186 59.9493 23.3604 59.9493 23.8868C59.9493 24.2196 59.9639 24.7267 59.993 25.4078C60.0003 25.493 59.9857 25.5627 59.9493 25.6168C59.9202 25.6633 59.8656 25.7252 59.7856 25.8026Z" fill="black"/>
<path d="M63.3633 25.8607C63.2687 25.4504 63.2214 24.8815 63.2214 24.1538L63.2432 23.1205C63.2578 22.8108 63.265 22.4664 63.265 22.0871C63.2214 21.9787 63.1995 21.882 63.1995 21.7968V21.762C63.2723 21.6149 63.3087 21.2821 63.3087 20.7634L63.3196 20.2293C63.3269 20.059 63.3306 19.8694 63.3306 19.6604C63.3306 19.2037 63.3014 18.8437 63.2432 18.5806C63.265 18.4722 63.3014 18.3793 63.3524 18.3019C63.4033 18.2167 63.4652 18.1742 63.538 18.1742H64.0184C64.2222 18.1742 64.4006 18.2245 64.5534 18.3251C64.7063 18.418 64.8227 18.5535 64.9028 18.7315C65.0484 19.0489 65.1212 19.4243 65.1212 19.8578C65.1212 20.1674 65.1175 20.4112 65.1103 20.5893C65.0957 20.8137 65.0593 21.0189 65.0011 21.2046C64.9792 21.3053 64.9465 21.3904 64.9028 21.4601C64.8664 21.522 64.8118 21.5994 64.739 21.6923C64.6371 21.8239 64.4697 21.9478 64.2368 22.0639C64.1422 22.118 64.0184 22.1684 63.8656 22.2148V23.4572L63.8874 24.2003L63.9092 24.5602C63.9384 24.9937 63.9529 25.3614 63.9529 25.6633C63.9529 25.7562 63.9165 25.8336 63.8437 25.8955C63.7709 25.9652 63.6872 26 63.5926 26L63.3633 25.8607ZM63.8765 21.7388C64.3059 21.6691 64.5207 21.015 64.5207 19.7765C64.5207 19.552 64.5098 19.3778 64.4879 19.254C64.4661 19.1611 64.437 19.0876 64.4006 19.0334C64.3642 18.9715 64.3096 18.9211 64.2368 18.8824C64.1567 18.836 64.0694 18.8128 63.9747 18.8128C63.9747 18.805 63.9347 18.8012 63.8546 18.8012V19.463C63.8546 19.9197 63.8583 20.3261 63.8656 20.6821C63.8656 21.0847 63.8692 21.3478 63.8765 21.4717V21.7155V21.7388Z" fill="black"/>
<path d="M66.6962 25.9303C66.6015 25.9303 66.5142 25.8955 66.4341 25.8258C66.3613 25.7562 66.3213 25.671 66.314 25.5704V25.2685V25.0363C66.3067 24.9666 66.3031 24.8853 66.3031 24.7925C66.3031 24.6299 66.2922 24.3822 66.2704 24.0493L66.2485 23.3062C66.2485 22.9269 66.2594 22.3619 66.2813 21.611C66.3104 20.9376 66.3249 20.3725 66.3249 19.9158C66.3249 19.8075 66.314 19.6449 66.2922 19.4282C66.2704 19.2037 66.2594 19.0411 66.2594 18.9405C66.2594 18.3909 66.4123 18.1161 66.718 18.1161C66.9582 18.1161 67.2348 18.1664 67.5478 18.2671C67.8681 18.3677 68.0282 18.4877 68.0282 18.627C68.0282 18.7044 67.9955 18.7779 67.93 18.8476C67.8717 18.9095 67.7989 18.9598 67.7116 18.9985C67.4059 18.8824 67.1293 18.805 66.8818 18.7663C66.8891 18.8824 66.8927 19.0489 66.8927 19.2656C66.8927 19.5752 66.8891 19.8539 66.8818 20.1016C66.8599 20.4731 66.849 20.7518 66.849 20.9376L66.8818 21.1234L67.0565 21.1118C67.1147 21.104 67.1875 21.1001 67.2748 21.1001C67.6242 21.1001 67.7989 21.2085 67.7989 21.4253C67.7989 21.5104 67.7662 21.5839 67.7007 21.6459C67.6352 21.7 67.5514 21.7271 67.4495 21.7271C67.3185 21.7271 67.2166 21.7194 67.1438 21.7039H66.8709C66.8854 21.9052 66.8927 22.1993 66.8927 22.5864C66.8927 22.9734 66.8891 23.3217 66.8818 23.6313C66.8599 24.1035 66.849 24.4557 66.849 24.688C66.849 25.1214 66.8563 25.3382 66.8709 25.3382L67.2312 25.3266C67.3549 25.3188 67.5041 25.3149 67.6788 25.3149C67.9554 25.3149 68.0937 25.4078 68.0937 25.5936C68.0937 25.702 68.0464 25.7833 67.9518 25.8374C67.8644 25.8994 67.7553 25.9303 67.6242 25.9303H66.6962Z" fill="black"/>
<path d="M69.9082 25.5936L69.8972 25.1408C69.89 25.0092 69.8863 24.8621 69.8863 24.6996L69.8972 24.3048C69.8754 24.2196 69.8208 23.372 69.7335 21.762C69.6461 20.1519 69.5952 19.1185 69.5806 18.6618C69.1584 18.6463 68.8891 18.5999 68.7726 18.5225C68.6926 18.4606 68.6525 18.3909 68.6525 18.3135C68.6525 18.2516 68.6889 18.1974 68.7617 18.1509C68.8418 18.0968 68.9219 18.0697 69.0019 18.0697C69.2057 18.0697 69.4532 18.0851 69.7444 18.1161C70.021 18.1548 70.2685 18.1742 70.4868 18.1742H70.5742H70.6615C70.8872 18.1742 71 18.2671 71 18.4528C71 18.5457 70.9636 18.6231 70.8908 18.6851C70.818 18.7392 70.7343 18.7663 70.6397 18.7663C70.5742 18.7663 70.4796 18.7547 70.3558 18.7315L70.1374 18.6851L70.1265 18.7431L70.1156 18.8012C70.1156 19.4901 70.1775 20.5893 70.3012 22.0987C70.4177 23.5152 70.4759 24.6144 70.4759 25.3962C70.4759 25.4891 70.4359 25.5704 70.3558 25.6401C70.283 25.7097 70.1993 25.7446 70.1047 25.7446L69.9082 25.5936Z" fill="black"/>
<path fill-rule="evenodd" clip-rule="evenodd" d="M39.687 23.0333C39.6873 23.0333 39.6876 23.0333 39.6556 22.571C39.6235 22.1088 39.6237 22.1087 39.6238 22.1087L39.6236 22.1087L39.6222 22.1088L39.6148 22.1093C39.6077 22.1097 39.5966 22.1104 39.5813 22.1112C39.5509 22.1128 39.5042 22.115 39.4416 22.1173C39.3166 22.1218 39.1282 22.1264 38.88 22.1266C38.3836 22.127 37.6479 22.1096 36.7004 22.0378C34.8055 21.8943 32.0641 21.5332 28.6964 20.662C22.1601 18.971 13.2595 15.3568 3.60693 7.67195L6.63285 7.36918C6.88749 7.3437 7.07325 7.11662 7.04777 6.86199C7.0223 6.60735 6.79522 6.42159 6.54059 6.44707L2.39108 6.86225C2.13644 6.88773 1.95067 7.11481 1.97615 7.36944L2.39134 11.519C2.41682 11.7736 2.64389 11.9594 2.89853 11.9339C3.15316 11.9084 3.33893 11.6813 3.31345 11.4267L3.00863 8.38015C12.7788 16.1637 21.8075 19.8371 28.4643 21.5592C31.8899 22.4454 34.686 22.8146 36.6304 22.9619C37.6026 23.0355 38.362 23.0537 38.8807 23.0533C39.1401 23.0531 39.3393 23.0483 39.475 23.0434C39.5428 23.041 39.5947 23.0385 39.6303 23.0366C39.6481 23.0357 39.6618 23.0349 39.6714 23.0343L39.6826 23.0336L39.6859 23.0334L39.687 23.0333Z" fill="black"/>
</svg>
