<svg width="161" height="75" viewBox="0 0 161 75" fill="none" xmlns="http://www.w3.org/2000/svg">
<path d="M4.68 24.336C4.328 24.336 3.952 24.28 3.552 24.168C3.168 24.072 2.872 23.96 2.664 23.832C1.592 23.144 1.056 21.264 1.056 18.192V17.544V16.8V16.224C1.056 15.584 1.064 15.016 1.08 14.52C1.096 14.008 1.128 13.456 1.176 12.864C1.224 12.24 1.296 11.736 1.392 11.352C1.488 10.952 1.648 10.504 1.872 10.008C2.064 9.544 2.296 9.184 2.568 8.928C2.856 8.672 3.224 8.456 3.672 8.28C4.072 8.104 4.568 8.016 5.16 8.016C5.4 8.016 5.584 8.072 5.712 8.184C5.84 8.296 5.904 8.44 5.904 8.616C5.904 8.776 5.848 8.92 5.736 9.048C5.64 9.176 5.52 9.248 5.376 9.264H4.248C3.928 9.264 3.648 9.464 3.408 9.864C3.168 10.264 3 10.784 2.904 11.424C2.696 12.608 2.592 13.568 2.592 14.304V14.424L2.544 16.728C2.512 17.416 2.496 18.192 2.496 19.056C2.496 19.664 2.52 20.16 2.568 20.544C2.648 21.12 2.784 21.6 2.976 21.984C3.168 22.416 3.496 22.728 3.96 22.92C4.2 23.016 4.464 23.064 4.752 23.064C4.928 23.064 5.104 23 5.28 22.872C5.488 22.872 5.656 22.92 5.784 23.016C5.928 23.096 6 23.224 6 23.4C6 24.024 5.56 24.336 4.68 24.336ZM9.27113 24.312C9.06313 24.312 8.87113 24.24 8.69513 24.096C8.53513 23.952 8.44713 23.776 8.43113 23.568V22.944V22.464C8.41513 22.32 8.40713 22.152 8.40713 21.96C8.40713 21.624 8.38313 21.112 8.33513 20.424L8.28712 18.888C8.28712 18.104 8.31113 16.936 8.35913 15.384C8.42313 13.992 8.45513 12.824 8.45513 11.88C8.45513 11.656 8.43113 11.32 8.38313 10.872C8.33513 10.408 8.31113 10.072 8.31113 9.864C8.31113 8.728 8.64713 8.16 9.31913 8.16C9.84713 8.16 10.4551 8.264 11.1431 8.472C11.8471 8.68 12.1991 8.928 12.1991 9.216C12.1991 9.376 12.1271 9.528 11.9831 9.672C11.8551 9.8 11.6951 9.904 11.5031 9.984C10.8311 9.744 10.2231 9.584 9.67913 9.504C9.69513 9.744 9.70312 10.088 9.70312 10.536C9.70312 11.176 9.69513 11.752 9.67913 12.264C9.63113 13.032 9.60713 13.608 9.60713 13.992L9.67913 14.376L10.0631 14.352C10.1911 14.336 10.3511 14.328 10.5431 14.328C11.3111 14.328 11.6951 14.552 11.6951 15C11.6951 15.176 11.6231 15.328 11.4791 15.456C11.3351 15.568 11.1511 15.624 10.9271 15.624C10.6391 15.624 10.4151 15.608 10.2551 15.576H9.65513C9.68713 15.992 9.70312 16.6 9.70312 17.4C9.70312 18.2 9.69513 18.92 9.67913 19.56C9.63113 20.536 9.60713 21.264 9.60713 21.744C9.60713 22.64 9.62313 23.088 9.65513 23.088L10.4471 23.064C10.7191 23.048 11.0471 23.04 11.4311 23.04C12.0391 23.04 12.3431 23.232 12.3431 23.616C12.3431 23.84 12.2391 24.008 12.0311 24.12C11.8391 24.248 11.5991 24.312 11.3111 24.312H9.27113ZM15.9714 24.048C15.9074 24.032 15.8034 24.016 15.6594 24C15.5154 23.984 15.3954 23.944 15.2994 23.88C15.0594 23.72 14.9634 23.448 15.0114 23.064L15.0354 22.536C15.0994 21.672 15.1314 21.024 15.1314 20.592C15.1314 18.08 15.1074 15.552 15.0594 13.008C15.0594 11.696 15.0194 10.304 14.9394 8.832C14.9234 8.576 14.9794 8.36 15.1074 8.184C15.2514 8.008 15.4274 7.92 15.6354 7.92C15.8274 7.92 16.0194 8.008 16.2114 8.184C16.4194 8.36 16.5154 8.568 16.4994 8.808C16.3874 9.288 16.3314 10.248 16.3314 11.688V13.608C16.3314 13.96 16.3474 14.52 16.3794 15.288C16.4274 15.224 16.5794 14.928 16.8354 14.4C16.8674 14.336 16.9234 14.24 17.0034 14.112C17.0834 13.968 17.1394 13.824 17.1714 13.68C17.6994 12.08 18.1314 10.848 18.4674 9.984C18.6114 9.52 18.8034 9.128 19.0434 8.808C19.2834 8.472 19.6114 8.24 20.0274 8.112C20.1714 8.064 20.3634 8.08 20.6034 8.16C20.8594 8.24 21.0274 8.336 21.1074 8.448C21.2034 8.56 21.2514 8.696 21.2514 8.856C21.2514 9.016 21.1954 9.16 21.0834 9.288C20.9874 9.416 20.8594 9.496 20.6994 9.528C20.2994 9.592 19.9874 9.736 19.7634 9.96C19.5394 10.184 19.3714 10.424 19.2594 10.68C19.1634 10.92 19.0434 11.288 18.8994 11.784L17.9394 14.136C17.8914 14.248 17.8194 14.44 17.7234 14.712C17.6434 14.984 17.5634 15.192 17.4834 15.336C17.4514 15.384 17.4034 15.432 17.3394 15.48C17.2754 15.528 17.2194 15.576 17.1714 15.624C17.2834 15.544 17.4274 15.568 17.6034 15.696C17.7954 15.824 17.9874 16 18.1794 16.224C18.3074 16.48 18.3954 16.76 18.4434 17.064C18.5074 17.368 18.5474 17.544 18.5634 17.592C18.5954 17.848 18.6274 18.04 18.6594 18.168C18.8514 18.68 18.9874 19.152 19.0674 19.584C19.1474 20 19.2034 20.496 19.2354 21.072C19.2834 21.648 19.4434 22.152 19.7154 22.584C19.7954 22.6 19.8834 22.616 19.9794 22.632C20.0914 22.648 20.2114 22.664 20.3394 22.68C20.5954 22.696 20.7634 22.856 20.8434 23.16C20.8594 23.192 20.8674 23.248 20.8674 23.328C20.8674 23.504 20.7874 23.672 20.6274 23.832C20.3874 24.072 20.0834 24.192 19.7154 24.192C19.4434 24.192 19.1794 24.12 18.9234 23.976C18.6834 23.832 18.5074 23.64 18.3954 23.4C18.2994 23.24 18.2194 23.024 18.1554 22.752C18.0434 22.064 17.9474 21.368 17.8674 20.664C17.8034 19.688 17.7314 18.952 17.6514 18.456C17.5874 17.944 17.4354 17.456 17.1954 16.992C17.1314 16.88 17.0674 16.8 17.0034 16.752C16.9394 16.688 16.8514 16.656 16.7394 16.656C16.6434 16.656 16.5234 16.68 16.3794 16.728C16.3474 17.88 16.3314 19 16.3314 20.088C16.3314 20.776 16.3634 21.824 16.4274 23.232C16.4434 23.408 16.4114 23.552 16.3314 23.664C16.2674 23.76 16.1474 23.888 15.9714 24.048ZM23.8358 24.168C23.6278 23.32 23.5238 22.144 23.5238 20.64L23.5718 18.504C23.6038 17.864 23.6198 17.152 23.6198 16.368C23.5238 16.144 23.4758 15.944 23.4758 15.768V15.696C23.6358 15.392 23.7158 14.704 23.7158 13.632L23.7398 12.528C23.7558 12.176 23.7638 11.784 23.7638 11.352C23.7638 10.408 23.6998 9.664 23.5718 9.12C23.6198 8.896 23.6998 8.704 23.8118 8.544C23.9238 8.368 24.0598 8.28 24.2198 8.28H25.2758C25.7238 8.28 26.1158 8.384 26.4518 8.592C26.7878 8.784 27.0438 9.064 27.2198 9.432C27.5398 10.088 27.6998 10.864 27.6998 11.76C27.6998 12.4 27.6918 12.904 27.6758 13.272C27.6438 13.736 27.5638 14.16 27.4358 14.544C27.3878 14.752 27.3158 14.928 27.2198 15.072C27.1398 15.2 27.0198 15.36 26.8598 15.552C26.6358 15.824 26.2678 16.08 25.7558 16.32C25.5478 16.432 25.2758 16.536 24.9398 16.632V19.2L24.9878 20.736L25.0358 21.48C25.0998 22.376 25.1318 23.136 25.1318 23.76C25.1318 23.952 25.0518 24.112 24.8918 24.24C24.7318 24.384 24.5478 24.456 24.3398 24.456L23.8358 24.168ZM24.9638 15.648C25.9078 15.504 26.3798 14.152 26.3798 11.592C26.3798 11.128 26.3558 10.768 26.3078 10.512C26.2598 10.32 26.1958 10.168 26.1158 10.056C26.0358 9.928 25.9158 9.824 25.7558 9.744C25.5798 9.648 25.3878 9.6 25.1798 9.6C25.1798 9.584 25.0918 9.576 24.9158 9.576V10.944C24.9158 11.888 24.9238 12.728 24.9398 13.464C24.9398 14.296 24.9478 14.84 24.9638 15.096V15.6V15.648ZM31.1618 24.312C30.9538 24.312 30.7618 24.24 30.5858 24.096C30.4258 23.952 30.3378 23.776 30.3218 23.568V22.944V22.464C30.3058 22.32 30.2978 22.152 30.2978 21.96C30.2978 21.624 30.2738 21.112 30.2258 20.424L30.1777 18.888C30.1777 18.104 30.2018 16.936 30.2498 15.384C30.3138 13.992 30.3458 12.824 30.3458 11.88C30.3458 11.656 30.3218 11.32 30.2738 10.872C30.2258 10.408 30.2018 10.072 30.2018 9.864C30.2018 8.728 30.5378 8.16 31.2098 8.16C31.7378 8.16 32.3458 8.264 33.0338 8.472C33.7378 8.68 34.0898 8.928 34.0898 9.216C34.0898 9.376 34.0178 9.528 33.8738 9.672C33.7458 9.8 33.5858 9.904 33.3938 9.984C32.7218 9.744 32.1138 9.584 31.5698 9.504C31.5858 9.744 31.5938 10.088 31.5938 10.536C31.5938 11.176 31.5858 11.752 31.5698 12.264C31.5218 13.032 31.4978 13.608 31.4978 13.992L31.5698 14.376L31.9538 14.352C32.0818 14.336 32.2418 14.328 32.4338 14.328C33.2018 14.328 33.5858 14.552 33.5858 15C33.5858 15.176 33.5138 15.328 33.3698 15.456C33.2258 15.568 33.0418 15.624 32.8178 15.624C32.5298 15.624 32.3058 15.608 32.1458 15.576H31.5458C31.5778 15.992 31.5938 16.6 31.5938 17.4C31.5938 18.2 31.5858 18.92 31.5698 19.56C31.5218 20.536 31.4978 21.264 31.4978 21.744C31.4978 22.64 31.5138 23.088 31.5458 23.088L32.3378 23.064C32.6098 23.048 32.9378 23.04 33.3218 23.04C33.9298 23.04 34.2338 23.232 34.2338 23.616C34.2338 23.84 34.1298 24.008 33.9218 24.12C33.7298 24.248 33.4898 24.312 33.2018 24.312H31.1618ZM38.2221 23.616L38.1981 22.68C38.1821 22.408 38.1741 22.104 38.1741 21.768L38.1981 20.952C38.1501 20.776 38.0301 19.024 37.8381 15.696C37.6461 12.368 37.5341 10.232 37.5021 9.288C36.5741 9.256 35.9821 9.16 35.7261 9C35.5501 8.872 35.4621 8.728 35.4621 8.568C35.4621 8.44 35.5421 8.328 35.7021 8.232C35.8781 8.12 36.0541 8.064 36.2301 8.064C36.6781 8.064 37.2221 8.096 37.8621 8.16C38.4701 8.24 39.0141 8.28 39.4941 8.28H39.6861H39.8781C40.3741 8.28 40.6221 8.472 40.6221 8.856C40.6221 9.048 40.5421 9.208 40.3821 9.336C40.2221 9.448 40.0381 9.504 39.8301 9.504C39.6861 9.504 39.4781 9.48 39.2061 9.432L38.7261 9.336L38.7021 9.456L38.6781 9.576C38.6781 11 38.8141 13.272 39.0861 16.392C39.3421 19.32 39.4701 21.592 39.4701 23.208C39.4701 23.4 39.3821 23.568 39.2061 23.712C39.0461 23.856 38.8621 23.928 38.6541 23.928L38.2221 23.616Z" fill="black"/>
<path d="M160.791 67.0228C161.129 66.586 161.049 65.9579 160.612 65.62L153.493 60.1139C153.056 59.776 152.428 59.8563 152.09 60.2931C151.752 60.73 151.832 61.3581 152.269 61.6959L158.597 66.5903L153.703 72.9184C153.365 73.3553 153.445 73.9833 153.882 74.3212C154.319 74.6591 154.947 74.5789 155.285 74.142L160.791 67.0228ZM32 30C31.269 30.6823 31.2695 30.6829 31.2702 30.6837C31.2706 30.6841 31.2715 30.6851 31.2724 30.686C31.2742 30.688 31.2767 30.6906 31.2799 30.694C31.2862 30.7007 31.2952 30.7103 31.307 30.7226C31.3304 30.7473 31.3645 30.7831 31.4095 30.8296C31.4993 30.9226 31.6321 31.0585 31.8077 31.2341C32.159 31.5852 32.6817 32.095 33.3748 32.7379C34.7611 34.0236 36.8294 35.8416 39.572 37.9861C45.057 42.275 53.2419 47.8721 64.0644 53.1294C85.7165 63.6472 117.912 72.7965 160.127 67.403L159.873 65.4191C118.092 70.7572 86.2872 61.701 64.9383 51.3304C54.2604 46.1434 46.1946 40.6256 40.804 36.4106C38.1089 34.3032 36.0832 32.522 34.7349 31.2715C34.0607 30.6463 33.556 30.1538 33.2217 29.8196C33.0545 29.6525 32.9299 29.525 32.8481 29.4402C32.8072 29.3979 32.777 29.3662 32.7575 29.3457C32.7477 29.3354 32.7406 29.3279 32.7362 29.3232C32.734 29.3208 32.7325 29.3192 32.7316 29.3183C32.7312 29.3178 32.731 29.3177 32.7308 29.3174C32.7308 29.3174 32.731 29.3177 32 30Z" fill="black"/>
</svg>
