<svg width="62" height="25" viewBox="0 0 62 25" fill="none" xmlns="http://www.w3.org/2000/svg">
<path fill-rule="evenodd" clip-rule="evenodd" d="M24.5334 10.3131C24.5334 10.3131 24.5335 10.3131 24.4526 9.98194C24.3717 9.65074 24.3719 9.65073 24.3722 9.65071L24.3759 9.65047L24.3859 9.64983L24.4234 9.64756C24.4562 9.64563 24.5043 9.6429 24.5675 9.63964C24.6937 9.6331 24.88 9.62438 25.1231 9.61546C25.6093 9.5976 26.3229 9.5789 27.2387 9.5751C29.0703 9.56749 31.7117 9.61948 34.9615 9.8572C41.2161 10.3147 49.7303 11.4606 59.0644 14.1968L57.7339 12.134C57.6227 11.9616 57.7315 11.7702 57.9768 11.7065C58.2221 11.6427 58.511 11.7307 58.6222 11.903L60.4335 14.7114C60.5447 14.8837 60.436 15.0751 60.1907 15.1389L56.1933 16.1781C55.948 16.2418 55.659 16.1538 55.5479 15.9815C55.4367 15.8091 55.5454 15.6177 55.7907 15.554L58.7042 14.7966C49.4962 12.1003 41.0965 10.9702 34.9261 10.5188C31.7175 10.2841 29.1132 10.233 27.3139 10.2405C26.4142 10.2443 25.716 10.2626 25.2442 10.2799C25.0083 10.2886 24.829 10.297 24.7095 10.3032C24.6498 10.3063 24.605 10.3088 24.5755 10.3106L24.5428 10.3125L24.5352 10.313L24.5334 10.3131Z" fill="black"/>
<path d="M0.62519 15.2499C0.586518 15.2422 0.523677 15.2345 0.436666 15.2267C0.349655 15.219 0.277146 15.1997 0.219139 15.1687C0.0741204 15.0914 0.0161131 14.9599 0.0451168 14.7743L0.0596186 14.519C0.0982901 14.1014 0.117626 13.7881 0.117626 13.5793C0.117626 12.365 0.103124 11.143 0.0741204 9.91326C0.0741204 9.27905 0.0499507 8.60616 0.00161132 7.89461C-0.00805658 7.77086 0.025781 7.66644 0.103124 7.58137C0.190135 7.49629 0.296482 7.45375 0.422164 7.45375C0.538179 7.45375 0.654194 7.49629 0.770208 7.58137C0.895891 7.66644 0.953898 7.76699 0.94423 7.883C0.876555 8.11503 0.842717 8.57909 0.842717 9.27518V10.2033C0.842717 10.3735 0.852385 10.6442 0.871721 11.0154C0.900725 10.9845 0.99257 10.8414 1.14726 10.5861C1.16659 10.5552 1.20043 10.5088 1.24877 10.4469C1.29711 10.3773 1.33095 10.3077 1.35028 10.2381C1.66932 9.46467 1.93035 8.86913 2.13338 8.45148C2.22039 8.22718 2.33641 8.03769 2.48142 7.883C2.62644 7.72058 2.82463 7.60844 3.076 7.54656C3.16301 7.52336 3.27902 7.53109 3.42404 7.56976C3.57873 7.60844 3.68024 7.65484 3.72858 7.70898C3.78659 7.76312 3.81559 7.82886 3.81559 7.90621C3.81559 7.98355 3.78175 8.05316 3.71408 8.11503C3.65607 8.17691 3.57873 8.21558 3.48205 8.23105C3.24035 8.26198 3.05183 8.33159 2.91648 8.43987C2.78113 8.54815 2.67962 8.66417 2.61194 8.78792C2.55393 8.90393 2.48142 9.08182 2.39441 9.32159L1.81434 10.4585C1.78534 10.5127 1.74183 10.6055 1.68382 10.737C1.63548 10.8684 1.58714 10.969 1.53881 11.0386C1.51947 11.0618 1.49047 11.085 1.45179 11.1082C1.41312 11.1314 1.37929 11.1546 1.35028 11.1778C1.41796 11.1391 1.50497 11.1507 1.61131 11.2126C1.72733 11.2745 1.84334 11.3596 1.95936 11.4679C2.0367 11.5916 2.08987 11.727 2.11888 11.8739C2.15755 12.0209 2.18172 12.1059 2.19139 12.1291C2.21072 12.2529 2.23006 12.3457 2.24939 12.4076C2.36541 12.6551 2.44759 12.8832 2.49593 13.0921C2.54427 13.2932 2.5781 13.5329 2.59744 13.8114C2.62644 14.0898 2.72312 14.3334 2.88748 14.5422C2.93581 14.55 2.98899 14.5577 3.047 14.5654C3.11467 14.5732 3.18718 14.5809 3.26452 14.5886C3.41921 14.5964 3.52072 14.6737 3.56906 14.8207C3.57873 14.8361 3.58356 14.8632 3.58356 14.9019C3.58356 14.987 3.53522 15.0682 3.43854 15.1455C3.29353 15.2615 3.10984 15.3195 2.88748 15.3195C2.72312 15.3195 2.5636 15.2847 2.40891 15.2151C2.2639 15.1455 2.15755 15.0527 2.08987 14.9367C2.03187 14.8594 1.98353 14.7549 1.94486 14.6235C1.87718 14.2909 1.81917 13.9544 1.77083 13.6141C1.73216 13.1423 1.68866 12.7866 1.64032 12.5468C1.60165 12.2993 1.5098 12.0634 1.36478 11.8391C1.32611 11.785 1.28744 11.7463 1.24877 11.7231C1.2101 11.6922 1.15692 11.6767 1.08925 11.6767C1.03124 11.6767 0.958732 11.6883 0.871721 11.7115C0.852385 12.2684 0.842717 12.8098 0.842717 13.3357C0.842717 13.6683 0.862053 14.1749 0.900725 14.8555C0.910393 14.9406 0.891057 15.0102 0.842717 15.0643C0.804046 15.1107 0.731537 15.1726 0.62519 15.2499Z" fill="black"/>
<path d="M4.95659 15.482C4.87925 15.482 4.81157 15.4626 4.75357 15.424C4.69556 15.3853 4.65205 15.335 4.62305 15.2731C4.61338 15.2577 4.60855 15.2345 4.60855 15.2035C4.60855 15.103 4.67622 15.0218 4.81157 14.9599C5.08227 14.8671 5.2853 14.7279 5.42065 14.5422C5.56567 14.3489 5.66718 14.1246 5.72519 13.8694C5.89921 13.1114 5.98622 12.2877 5.98622 11.3982C5.98622 11.0657 5.98139 10.8143 5.97172 10.6442C5.90404 9.33705 5.84604 8.41667 5.7977 7.883V7.8366C5.7977 7.76699 5.81703 7.71285 5.8557 7.67418C5.89438 7.63551 5.96205 7.60844 6.05873 7.59297C6.67747 7.50016 7.17054 7.45375 7.53792 7.45375C7.73127 7.45375 7.87629 7.45762 7.97297 7.46535C8.19533 7.47309 8.36452 7.52723 8.48054 7.62777C8.59655 7.72832 8.65456 7.86754 8.65456 8.04542L8.66906 8.6603C8.68839 9.2017 8.69806 9.60775 8.69806 9.87846L8.68356 10.4353C8.68356 11.2552 8.72223 12.2916 8.79958 13.5445C8.83825 14.1091 8.87208 14.5461 8.90109 14.8555C8.91076 14.9947 8.88175 15.0952 8.81408 15.1571C8.75607 15.219 8.65456 15.2577 8.50954 15.2731C8.1905 15.2886 8.02131 15.1687 8.00198 14.9135C8.03098 14.6892 8.04548 14.4649 8.04548 14.2406C8.04548 14.0163 8.04065 13.8307 8.03098 13.6837L8.01648 12.3612C8.01648 11.7192 8.00198 11.0618 7.97297 10.3889C7.95364 9.83205 7.92463 9.30612 7.88596 8.81112C7.84729 8.31613 7.80862 8.01449 7.76995 7.90621C7.71194 7.91394 7.59109 7.93328 7.4074 7.96421C7.22371 7.99515 6.97235 8.02222 6.65331 8.04542C6.6243 8.4012 6.6098 8.65643 6.6098 8.81112C6.6098 8.98901 6.6243 9.1437 6.65331 9.27518C6.67264 9.48401 6.69198 9.78951 6.71131 10.1917V10.4469C6.71131 11.6999 6.69681 12.5468 6.66781 12.9876C6.64847 13.1114 6.6388 13.2081 6.6388 13.2777C6.60013 13.6025 6.56146 13.85 6.52279 14.0202C6.42611 14.4301 6.13124 14.8477 5.63818 15.2731C5.50283 15.3969 5.2853 15.4665 4.9856 15.482H4.95659Z" fill="black"/>
<path d="M11.2011 15.2035C11.0754 15.1726 11.0077 15.1068 10.9981 15.0063V14.8323C10.9787 14.5074 10.9594 14.0202 10.9401 13.3705C10.9014 12.8059 10.8772 12.3728 10.8676 12.0711C10.8386 11.5993 10.8047 10.8916 10.766 9.94806C10.7564 9.78564 10.7467 9.56135 10.737 9.27518C10.7274 8.98901 10.7225 8.77245 10.7225 8.6255C10.7129 8.54042 10.708 8.42054 10.708 8.26585C10.708 8.08796 10.7177 7.95648 10.737 7.8714C10.7757 7.63164 10.9401 7.51949 11.2301 7.53496C11.5008 7.53496 11.6458 7.65871 11.6652 7.90621V8.04542L11.6507 10.969V12.3496V13.0457C11.6507 13.1539 11.6603 13.2816 11.6797 13.4285C11.699 13.5677 11.7135 13.6683 11.7232 13.7301C11.7715 13.5058 11.8488 13.2777 11.9552 13.0457C12.0712 12.8059 12.1437 12.6589 12.1727 12.6048C12.3177 12.3264 12.4241 12.0982 12.4918 11.9203C12.7238 11.3248 13.0235 10.5939 13.3909 9.72764C13.4682 9.54975 13.5552 9.33319 13.6519 9.07795C13.9129 8.42054 14.0918 7.99515 14.1885 7.80179C14.2755 7.61617 14.406 7.50016 14.58 7.45375C14.667 7.43055 14.754 7.41895 14.8411 7.41895C14.9764 7.41895 15.1166 7.45375 15.2616 7.52336V8.08023C15.2616 8.6603 15.2761 9.25971 15.3051 9.87846C15.3148 10.0099 15.3196 10.2072 15.3196 10.4701V10.8066C15.3196 10.8762 15.3148 10.969 15.3051 11.085C15.3051 11.201 15.31 11.3364 15.3196 11.4911L15.3631 14.6235C15.3631 14.7395 15.3293 14.8671 15.2616 15.0063C15.2326 15.0682 15.1843 15.1184 15.1166 15.1571C15.0489 15.1881 14.9764 15.2035 14.8991 15.2035C14.6284 15.2035 14.493 15.103 14.493 14.9019C14.493 14.6699 14.5075 14.4456 14.5365 14.229C14.5559 13.9351 14.5655 13.7108 14.5655 13.5561C14.5462 12.0247 14.522 10.88 14.493 10.1221C14.493 10.0061 14.4737 9.81658 14.435 9.55361L14.3915 9.13596C14.3045 9.2133 14.2562 9.26358 14.2465 9.28678L14.0145 9.85525C13.8598 10.2574 13.7389 10.5552 13.6519 10.7486L12.3903 13.5561L11.7377 14.9831C11.6603 15.1455 11.5443 15.2267 11.3896 15.2267C11.3606 15.2267 11.2978 15.219 11.2011 15.2035Z" fill="black"/>
<path d="M17.7045 15.2499C17.6658 15.2422 17.603 15.2345 17.516 15.2267C17.429 15.219 17.3564 15.1997 17.2984 15.1687C17.1534 15.0914 17.0954 14.9599 17.1244 14.7743L17.1389 14.519C17.1776 14.1014 17.1969 13.7881 17.1969 13.5793C17.1969 12.365 17.1824 11.143 17.1534 9.91326C17.1534 9.27905 17.1293 8.60616 17.0809 7.89461C17.0712 7.77086 17.1051 7.66644 17.1824 7.58137C17.2694 7.49629 17.3758 7.45375 17.5015 7.45375C17.6175 7.45375 17.7335 7.49629 17.8495 7.58137C17.9752 7.66644 18.0332 7.76699 18.0235 7.883C17.9559 8.11503 17.922 8.57909 17.922 9.27518V10.2033C17.922 10.3735 17.9317 10.6442 17.951 11.0154C17.98 10.9845 18.0719 10.8414 18.2266 10.5861C18.2459 10.5552 18.2797 10.5088 18.3281 10.4469C18.3764 10.3773 18.4102 10.3077 18.4296 10.2381C18.7486 9.46467 19.0097 8.86913 19.2127 8.45148C19.2997 8.22718 19.4157 8.03769 19.5607 7.883C19.7057 7.72058 19.9039 7.60844 20.1553 7.54656C20.2423 7.52336 20.3583 7.53109 20.5033 7.56976C20.658 7.60844 20.7595 7.65484 20.8079 7.70898C20.8659 7.76312 20.8949 7.82886 20.8949 7.90621C20.8949 7.98355 20.8611 8.05316 20.7934 8.11503C20.7354 8.17691 20.658 8.21558 20.5614 8.23105C20.3197 8.26198 20.1311 8.33159 19.9958 8.43987C19.8604 8.54815 19.7589 8.66417 19.6912 8.78792C19.6332 8.90393 19.5607 9.08182 19.4737 9.32159L18.8936 10.4585C18.8646 10.5127 18.8211 10.6055 18.7631 10.737C18.7148 10.8684 18.6664 10.969 18.6181 11.0386C18.5988 11.0618 18.5698 11.085 18.5311 11.1082C18.4924 11.1314 18.4586 11.1546 18.4296 11.1778C18.4973 11.1391 18.5843 11.1507 18.6906 11.2126C18.8066 11.2745 18.9226 11.3596 19.0387 11.4679C19.116 11.5916 19.1692 11.727 19.1982 11.8739C19.2369 12.0209 19.261 12.1059 19.2707 12.1291C19.29 12.2529 19.3094 12.3457 19.3287 12.4076C19.4447 12.6551 19.5269 12.8832 19.5752 13.0921C19.6236 13.2932 19.6574 13.5329 19.6767 13.8114C19.7057 14.0898 19.8024 14.3334 19.9668 14.5422C20.0151 14.55 20.0683 14.5577 20.1263 14.5654C20.194 14.5732 20.2665 14.5809 20.3438 14.5886C20.4985 14.5964 20.6 14.6737 20.6484 14.8207C20.658 14.8361 20.6629 14.8632 20.6629 14.9019C20.6629 14.987 20.6145 15.0682 20.5178 15.1455C20.3728 15.2615 20.1891 15.3195 19.9668 15.3195C19.8024 15.3195 19.6429 15.2847 19.4882 15.2151C19.3432 15.1455 19.2369 15.0527 19.1692 14.9367C19.1112 14.8594 19.0628 14.7549 19.0242 14.6235C18.9565 14.2909 18.8985 13.9544 18.8501 13.6141C18.8115 13.1423 18.768 12.7866 18.7196 12.5468C18.6809 12.2993 18.5891 12.0634 18.4441 11.8391C18.4054 11.785 18.3667 11.7463 18.3281 11.7231C18.2894 11.6922 18.2362 11.6767 18.1686 11.6767C18.1105 11.6767 18.038 11.6883 17.951 11.7115C17.9317 12.2684 17.922 12.8098 17.922 13.3357C17.922 13.6683 17.9414 14.1749 17.98 14.8555C17.9897 14.9406 17.9704 15.0102 17.922 15.0643C17.8833 15.1107 17.8108 15.1726 17.7045 15.2499Z" fill="black"/>
</svg>
