<svg width="491" height="58" viewBox="0 0 491 58" fill="none" xmlns="http://www.w3.org/2000/svg">
<g clip-path="url(#clip0_210_15)">
<path fill-rule="evenodd" clip-rule="evenodd" d="M14.9769 56.9409L0 1.00289H9.82449L21.3311 43.9672L33.665 0.999023L42.8221 1.00348L55.1986 44.1952L66.7577 1.01363L76.5818 1.00021L61.5989 56.9319L50.2113 56.92L38.2471 15.1464L26.2728 56.9318L14.9769 56.9409Z" fill="#481172"/>
<path fill-rule="evenodd" clip-rule="evenodd" d="M83.3584 1.03027H92.7102V56.9046H83.3584V1.03027Z" fill="#481172"/>
<path fill-rule="evenodd" clip-rule="evenodd" d="M112.704 48.1387H135.471V56.9046H103.545V1.03027H112.704V48.1387Z" fill="#481172"/>
<path fill-rule="evenodd" clip-rule="evenodd" d="M164.238 48.2042C169.527 48.2042 173.848 46.3998 177.073 42.7909C180.427 39.1823 182.104 34.5425 182.104 29.064C182.104 23.4578 180.427 18.9461 177.073 15.3377C173.783 11.7282 169.462 9.92418 164.238 9.92418H151.468V48.2042H164.238ZM164.238 1.03027C171.913 1.03027 178.299 3.80165 183.329 9.15084C188.425 14.5 191.004 21.1374 191.004 29.0001C191.004 36.7977 188.425 43.4355 183.329 48.8483C178.299 54.197 171.913 56.9046 164.238 56.9046H142.244V1.03027H164.238Z" fill="#481172"/>
<path fill-rule="evenodd" clip-rule="evenodd" d="M223.574 48.3591C227.831 48.3591 231.185 44.8761 231.185 40.4925C231.185 36.1073 227.831 32.6904 223.574 32.6904H208.805V48.3591H223.574ZM208.805 9.67176V24.3728H221.833C225.896 24.3728 228.992 21.1486 228.992 17.0221C228.992 12.8957 225.896 9.67176 221.833 9.67176H208.805ZM240.344 40.9442C240.344 45.5218 238.731 49.3261 235.442 52.3558C232.153 55.3867 228.283 56.9337 223.51 56.9337H199.582V1.03125H221.768C226.348 1.03125 230.218 2.57897 233.378 5.48028C236.603 8.44661 238.151 12.1214 238.151 16.5066C238.151 21.4069 236.216 25.146 232.475 27.9192C237.377 30.4982 240.344 35.1408 240.344 40.9442Z" fill="#481172"/>
<path fill-rule="evenodd" clip-rule="evenodd" d="M258.209 48.1653H282.975V56.9335H249.05V1.03174H282.589V9.80006H258.209V24.3082H280.589V33.0128H258.209V48.1653Z" fill="#481172"/>
<path fill-rule="evenodd" clip-rule="evenodd" d="M300.39 9.67152V28.37H313.549C318.45 28.37 322.32 24.2435 322.32 19.0208C322.32 13.8627 318.386 9.67152 313.549 9.67152H300.39ZM323.093 56.9335L311.226 36.5587H300.39V56.9335H291.233V1.03174H313.613C318.644 1.03174 322.9 2.77248 326.318 6.31842C329.801 9.73624 331.607 13.9917 331.607 19.0208C331.607 26.1136 327.157 32.6259 320.514 35.2048L333.22 56.9335H323.093Z" fill="#481172"/>
<path fill-rule="evenodd" clip-rule="evenodd" d="M349.408 9.6469V28.3554H362.565C367.467 28.3554 371.336 24.227 371.336 19.0017C371.336 13.8402 367.402 9.6469 362.565 9.6469H349.408ZM372.047 56.9337L360.243 36.5488H349.408V56.9337H340.249V1.00293H362.63C367.66 1.00293 371.917 2.74396 375.336 6.29244C378.819 9.7116 380.625 13.9692 380.625 19.0017C380.625 26.0982 376.174 32.613 369.532 35.1933L382.237 56.9337H372.047Z" fill="#481172"/>
<path fill-rule="evenodd" clip-rule="evenodd" d="M388.944 1.00879H398.103V56.9336H388.944V1.00879Z" fill="#481172"/>
<path fill-rule="evenodd" clip-rule="evenodd" d="M418.097 48.1653H442.864V56.9335H408.939V1.03174H442.477V9.80006H418.097V24.3082H440.479V33.0128H418.097V48.1653Z" fill="#481172"/>
<path fill-rule="evenodd" clip-rule="evenodd" d="M449.248 44.2094L457.182 39.5696C459.438 45.8845 464.018 48.9781 471.049 48.9781C478.014 48.9781 481.432 46.0138 481.432 41.6316C481.432 39.3117 480.465 37.6363 478.659 36.476C476.853 35.2516 473.499 33.8987 468.727 32.4807C463.374 30.8698 460.729 29.8386 456.988 27.3894C453.376 24.812 451.57 21.1384 451.57 16.1119C451.57 11.1496 453.312 7.28262 456.858 4.38266C460.341 1.41797 464.598 0 469.565 0C478.531 0 485.43 4.64058 489.043 12.3092L481.304 16.7566C478.981 11.6006 475.046 8.95822 469.565 8.95822C464.211 8.95822 460.793 11.6649 460.793 15.9181C460.793 20.0424 463.502 21.9759 472.08 24.618C474.209 25.3275 475.756 25.8424 476.725 26.2297C477.756 26.5519 479.11 27.1315 480.852 27.8409C482.657 28.5495 484.077 29.3867 484.915 30.096C487.882 32.416 490.655 36.1153 490.655 41.5673C490.655 46.5934 488.849 50.6532 485.173 53.6187C481.562 56.5829 476.789 58 470.855 58C460.019 57.9357 452.151 52.7794 449.248 44.2094Z" fill="#481172"/>
</g>
<defs>
<clipPath id="clip0_210_15">
<rect width="490.655" height="58" fill="white"/>
</clipPath>
</defs>
</svg>
