<?xml version="1.0" encoding="UTF-8" standalone="no"?>
<svg
   version="1.1"
   width="328.9632"
   height="38.886501"
   id="svg25"
   viewBox="0 0 328.96319 38.886501"
   sodipodi:docname="600f1c2332cf54cd6b86055dcaf10c6d.cdr"
   xmlns:inkscape="http://www.inkscape.org/namespaces/inkscape"
   xmlns:sodipodi="http://sodipodi.sourceforge.net/DTD/sodipodi-0.dtd"
   xmlns="http://www.w3.org/2000/svg"
   xmlns:svg="http://www.w3.org/2000/svg">
  <defs
     id="defs29" />
  <sodipodi:namedview
     id="namedview27"
     pagecolor="#ffffff"
     bordercolor="#666666"
     borderopacity="1.0"
     inkscape:pageshadow="2"
     inkscape:pageopacity="0.0"
     inkscape:pagecheckerboard="0" />
  <g
     id="Layer1000"
     transform="translate(-133.655,-391.945)">
    <path
       d="m 143.6964,430.1214 -10.0414,-37.504 h 6.5869 l 7.7147,28.8057 8.2693,-28.8083 6.1395,0.003 8.2979,28.9582 7.7499,-28.9514 6.5866,-0.009 -10.0454,37.4998 -7.6349,-0.008 -8.0215,-28.0074 -8.0282,28.0153 z"
       style="fill:#481172;fill-rule:evenodd"
       id="path2" />
    <path
       d="m 189.5431,392.6358 h 6.27 v 37.4613 h -6.27 z"
       style="fill:#481172;fill-rule:evenodd"
       id="path4" />
    <path
       d="m 209.2184,424.22 h 15.2643 v 5.8771 h -21.405 v -37.4613 h 6.1407 z"
       style="fill:#481172;fill-rule:evenodd"
       id="path6" />
    <path
       d="m 243.7696,424.2639 c 3.5456,0 6.4429,-1.2098 8.6052,-3.6294 2.2484,-2.4194 3.3729,-5.5302 3.3729,-9.2033 0,-3.7587 -1.1245,-6.7836 -3.3729,-9.2029 -2.2057,-2.42 -5.1027,-3.6295 -8.6052,-3.6295 h -8.5617 v 25.6651 z m 0,-31.6281 v 0 c 5.1458,0 9.4269,1.8581 12.7996,5.4445 3.4163,3.5864 5.1457,8.0365 5.1457,13.3081 0,5.2279 -1.7294,9.6783 -5.1457,13.3073 -3.3727,3.5861 -7.6538,5.4014 -12.7996,5.4014 h -14.7461 v -37.4613 z"
       style="fill:#481172;fill-rule:evenodd"
       id="path8" />
    <path
       d="m 283.5519,424.3677 c 2.8542,0 5.1027,-2.3352 5.1027,-5.2742 0,-2.9401 -2.2485,-5.231 -5.1027,-5.231 h -9.9023 v 10.5052 z m -9.9023,-25.9382 v 0 9.8564 h 8.735 c 2.7241,0 4.7996,-2.1617 4.7996,-4.9283 0,-2.7666 -2.0755,-4.9281 -4.7996,-4.9281 z m 21.1456,20.9668 v 0 c 0,3.0691 -1.0811,5.6197 -3.2867,7.651 -2.2051,2.0321 -4.7996,3.0693 -7.9994,3.0693 h -16.043 v -37.4802 h 14.8748 c 3.0705,0 5.6654,1.0377 7.7837,2.9829 2.1623,1.9888 3.2003,4.4526 3.2003,7.3927 0,3.2854 -1.2974,5.7923 -3.8052,7.6516 3.2862,1.7291 5.2755,4.8418 5.2755,8.7327 z"
       style="fill:#481172;fill-rule:evenodd"
       id="path10" />
    <path
       d="m 306.7733,424.2379 h 16.6045 v 5.8787 h -22.7452 v -37.4797 h 22.4864 v 5.8788 h -16.3457 v 9.7271 h 15.0049 v 5.836 h -15.0049 z"
       style="fill:#481172;fill-rule:evenodd"
       id="path12" />
    <path
       d="m 335.0537,398.4295 v 12.5365 h 8.8223 c 3.2859,0 5.8808,-2.7666 5.8808,-6.2682 0,-3.4583 -2.6377,-6.2683 -5.8808,-6.2683 z m 15.2215,31.6871 v 0 l -7.9568,-13.6604 h -7.2647 v 13.6604 h -6.1395 v -37.4797 h 15.0049 c 3.3729,0 6.2263,1.1671 8.5184,3.5445 2.3349,2.2915 3.5458,5.1446 3.5458,8.5164 0,4.7554 -2.9834,9.1216 -7.4375,10.8507 l 8.5187,14.5681 z"
       style="fill:#481172;fill-rule:evenodd"
       id="path14" />
    <path
       d="m 367.918,398.4128 v 12.5433 h 8.8212 c 3.287,0 5.8807,-2.768 5.8807,-6.2713 0,-3.4606 -2.6376,-6.272 -5.8807,-6.272 z m 15.1787,31.7038 v 0 l -7.914,-13.6672 h -7.2647 v 13.6672 h -6.1406 v -37.4992 h 15.0057 c 3.3721,0 6.2266,1.1673 8.5187,3.5464 2.3349,2.2924 3.5459,5.1469 3.5459,8.521 0,4.7579 -2.9844,9.1258 -7.4376,10.8558 l 8.5187,14.576 z"
       style="fill:#481172;fill-rule:evenodd"
       id="path16" />
    <path
       d="m 394.4257,392.6214 h 6.1407 v 37.4952 h -6.1407 z"
       style="fill:#481172;fill-rule:evenodd"
       id="path18" />
    <path
       d="m 413.9706,424.2379 h 16.6056 v 5.8787 H 407.831 v -37.4797 h 22.4853 v 5.8788 h -16.3457 v 9.7271 h 15.006 v 5.836 h -15.006 z"
       style="fill:#481172;fill-rule:evenodd"
       id="path20" />
    <path
       d="m 434.8565,421.5855 5.3192,-3.1108 c 1.5129,4.2339 4.5831,6.308 9.2971,6.308 4.6698,0 6.9619,-1.9874 6.9619,-4.9255 0,-1.5554 -0.6486,-2.6787 -1.8596,-3.4566 -1.2109,-0.8209 -3.4591,-1.728 -6.6591,-2.6787 -3.5889,-1.08 -5.3623,-1.7714 -7.8701,-3.4135 -2.4219,-1.728 -3.6329,-4.191 -3.6329,-7.5611 0,-3.327 1.1682,-5.9196 3.5459,-7.8639 2.3351,-1.9877 5.1894,-2.9384 8.5195,-2.9384 6.0109,0 10.6367,3.1113 13.0586,8.2528 l -5.1885,2.9818 c -1.5576,-3.4569 -4.1953,-5.2285 -7.8701,-5.2285 -3.5898,0 -5.8816,1.8147 -5.8816,4.6663 0,2.7652 1.8161,4.0615 7.5674,5.8329 1.4275,0.4757 2.4647,0.8209 3.1141,1.0806 0.6914,0.216 1.5996,0.6046 2.7675,1.0802 1.2101,0.4751 2.1622,1.0364 2.7238,1.512 1.989,1.5554 3.8486,4.0357 3.8486,7.691 0,3.3698 -1.211,6.0917 -3.6757,8.0799 -2.4211,1.9874 -5.6211,2.9375 -9.5998,2.9375 -7.2647,-0.0431 -12.5399,-3.5002 -14.4862,-9.246 z"
       style="fill:#481172;fill-rule:evenodd"
       id="path22" />
  </g>
</svg>
