<svg width="254" height="58" viewBox="0 0 254 58" fill="none" xmlns="http://www.w3.org/2000/svg">
<g clip-path="url(#clip0_210_2)">
<path fill-rule="evenodd" clip-rule="evenodd" d="M216.421 30.8692C222.058 23.1915 227.512 15.386 233.098 7.66992C235.619 8.67084 238.14 9.68786 240.664 10.6932C241.786 11.234 243.197 11.4546 244.109 12.2744C243.154 17.0446 241.921 21.7613 240.892 26.5163C244.325 23.6784 247.712 20.7791 251.145 17.9334C252.807 21.7729 253.542 25.9749 253.329 30.1502L253.298 30.181C247.627 35.2454 242.067 40.4411 236.338 45.4396C233.431 43.9011 230.485 42.4361 227.512 41.0251C228.634 36.6058 229.739 32.1839 230.833 27.7611C225.583 35.4655 220.519 43.2985 215.261 50.995C211.562 49.499 207.85 48.0262 204.147 46.5417C205.283 42.0881 206.362 37.619 207.514 33.1653C204.815 36.7606 202.121 40.3602 199.442 43.9668C197.343 40.5302 195.916 36.6756 195.472 32.663C200.053 27.208 204.557 21.6873 209.087 16.1939C209.366 15.9426 209.652 15.2858 210.123 15.6415C212.981 17.0096 215.807 18.4556 218.632 19.902C217.863 23.5509 217.152 27.2121 216.421 30.8692Z" fill="black"/>
<path fill-rule="evenodd" clip-rule="evenodd" d="M215.261 50.9951C220.519 43.2986 225.583 35.4656 230.833 27.7612C229.739 32.184 228.634 36.6059 227.512 41.0252C230.485 42.4363 233.431 43.9012 236.338 45.4398C242.067 40.4412 247.627 35.2455 253.298 30.1812C253.012 40.8084 246.251 50.8523 236.613 55.2828C230.369 58.2054 223.09 58.797 216.46 56.9292C209.412 54.9657 203.215 50.2298 199.442 43.967C202.121 40.3603 204.815 36.7608 207.514 33.1655C206.362 37.6191 205.283 42.0883 204.147 46.5418C207.85 48.0263 211.562 49.4991 215.261 50.9951Z" fill="#FED104"/>
<path fill-rule="evenodd" clip-rule="evenodd" d="M211.164 3.14239C218.095 -0.460482 226.523 -0.963161 233.879 1.62368C241.604 4.29864 248.048 10.364 251.145 17.9333C247.712 20.7791 244.325 23.6783 240.892 26.5162C241.921 21.7612 243.154 17.0445 244.109 12.2743C243.197 11.4545 241.786 11.2339 240.664 10.6931C238.14 9.68777 235.619 8.67075 233.098 7.66983C227.512 15.3859 222.058 23.1914 216.421 30.8691C217.152 27.212 217.863 23.5508 218.632 19.9019C215.807 18.4555 212.981 17.0095 210.123 15.6414C209.652 15.2857 209.366 15.9425 209.087 16.1938C204.557 21.6872 200.053 27.2079 195.472 32.6629C194.958 27.5056 195.475 22.182 197.636 17.4234C200.304 11.2881 205.163 6.11924 211.164 3.14239Z" fill="#FED104"/>
<path fill-rule="evenodd" clip-rule="evenodd" d="M106.253 51.2623C109.774 51.2623 112.661 49.6197 114.681 46.5634L115.065 50.6378H121.972V6.9834H114.512V22.7482C112.634 19.913 109.848 18.4221 106.584 18.4221C99.3738 18.4221 94.3409 24.5166 94.3409 35.0695C94.3409 45.4726 99.2215 51.2623 106.253 51.2623ZM152.186 48.5101V42.4065C149.855 43.9811 145.959 45.3642 142.312 45.3642C136.851 45.3642 134.779 42.7904 134.475 37.5273H152.49V33.5514C152.49 22.5672 147.657 18.4221 140.194 18.4221C131.08 18.4221 126.754 25.3746 126.754 34.9463C126.754 45.9271 132.144 51.2623 141.704 51.2623C146.467 51.2623 149.981 50.0042 152.186 48.5101ZM71.7157 27.9569C73.1087 26.2689 75.2799 24.8214 77.9879 24.8214C80.6247 24.8214 81.814 25.9647 81.814 28.3414V50.6378H89.2736V27.5827C89.2736 21.3092 86.7737 18.5479 80.6701 18.5479C76.2176 18.5479 73.5827 20.1905 72.0723 21.6846H71.6879L71.5096 19.0557H64.225V50.6378H71.6879V27.9569H71.7157ZM58.1493 29.1008C58.1493 21.4324 54.2532 18.5479 46.3351 18.5479C41.4196 18.5479 37.4794 20.6205 35.2264 22.2379V28.7169C37.6051 26.7676 41.2497 24.5166 45.4771 24.5166C49.0439 24.5166 50.6865 25.7864 50.6865 29.1722V31.174H49.4998C38.061 31.174 32.9756 34.864 32.9756 41.4688C32.9756 47.5724 36.8717 51.0839 42.6367 51.0839C47.0419 51.0839 48.9181 49.645 50.3577 48.1255H50.6611C50.7144 48.9406 50.9634 50.0042 51.2156 50.6378H58.506C58.2563 48.073 58.1214 45.4901 58.1214 42.9168V29.1008H58.1493ZM175.162 50.6378H183.59L173.286 34.3653L182.197 19.0557H174.734L169.345 28.5917L163.323 19.0557H154.868L164.402 34.1869L154.483 50.6378H162.081L168.434 39.9584L175.162 50.6378ZM108.462 24.3202C112.483 24.3202 114.485 27.5276 114.485 34.7932C114.485 42.1303 112.357 45.3468 108.132 45.3468C104.055 45.3468 102.028 42.2009 102.028 35.0449C102.053 27.5827 104.181 24.3202 108.462 24.3202ZM140.061 24.3202C143.76 24.3202 144.895 27.4037 144.895 31.3517V31.9886H134.475C134.645 26.9466 136.468 24.311 140.07 24.311L140.061 24.3202ZM50.6865 43.0862C49.7488 44.4817 47.9803 45.5984 45.3422 45.5984C42.2055 45.5984 40.6433 43.7749 40.6433 41.0129C40.6433 37.3762 43.2172 36.1064 49.623 36.1064H50.6865V43.0862Z" fill="black"/>
<path fill-rule="evenodd" clip-rule="evenodd" d="M21.9124 43.2216V50.6378H14.3258V38.1356L0 6.9834H7.91742L19.0791 31.3517C21.2322 36.0079 21.9124 37.6252 21.9124 43.2216ZM36.1825 6.9834L26.8721 28.0834H19.1596L28.4706 6.9834H36.1825Z" fill="black"/>
</g>
<defs>
<clipPath id="clip0_210_2">
<rect width="253.365" height="58" fill="white"/>
</clipPath>
</defs>
</svg>
