<svg width="324" height="245" viewBox="0 0 324 245" fill="none" xmlns="http://www.w3.org/2000/svg">
<g clip-path="url(#clip0_497_354)">
<path d="M320.446 1.71258C319.692 41.0727 308.752 79.5662 288.692 113.443C282.173 124.436 274.795 135.032 266.172 144.484C249.311 162.961 225.397 177.537 199.437 174.012C188.589 172.541 174.01 167.133 172.304 154.632C171.593 149.21 173.861 143.724 179.064 141.492C183.798 139.467 189.471 140.263 194.12 142.125C204.434 146.268 212.24 156.182 214.571 166.934C215.779 172.838 215.463 178.951 213.653 184.699C211.844 190.447 208.6 195.64 204.228 199.788C195.641 207.882 183.848 211.506 172.602 214.1C158.748 217.305 144.595 219.615 130.378 220.212C116.971 220.774 102.804 220.077 89.9656 215.863C80.6534 212.807 70.2181 206.688 68.5902 196.106C66.9624 185.525 76.5945 175.753 86.5891 174.332C97.4651 172.783 107.417 181.069 111.377 190.677C115.784 201.337 112.628 213.418 105.853 222.337C98.2115 232.421 86.326 237.971 74.1065 240.238C52.7809 244.147 27.7517 239.229 12.0631 223.481C8.469 219.876 5.49763 215.7 3.26987 211.123C2.26046 209.069 -0.803322 210.867 0.198982 212.914C10.6414 234.233 35.3294 244.453 58.0411 244.993C71.4621 245.32 85.5654 242.669 96.9675 235.278C107.438 228.456 115.329 217.391 116.751 204.848C117.393 199.038 116.424 193.164 113.95 187.868C111.476 182.573 107.593 178.059 102.725 174.822C97.9654 171.626 92.2366 170.195 86.5322 170.779C80.8 171.548 75.5005 174.245 71.5047 178.425C67.6092 182.462 64.9791 187.813 64.8583 193.484C64.7374 198.992 67.1259 204.272 70.737 208.337C78.7626 217.377 91.5863 220.71 103.074 222.422C118.478 224.711 134.088 224.107 149.471 221.982C157.056 220.937 164.584 219.53 172.055 217.86C178.293 216.565 184.41 214.742 190.338 212.409C202.259 207.505 212.375 199.262 216.697 186.783C218.747 180.858 219.314 174.522 218.349 168.328C217.384 162.133 214.915 156.27 211.159 151.25C204.328 142.21 192.677 134.819 180.919 137.207C178.157 137.724 175.595 139.002 173.52 140.897C171.445 142.791 169.941 145.228 169.176 147.931C167.591 153.772 169.254 160.09 172.922 164.795C180.955 175.099 196.139 178.297 208.536 178.013C222.291 177.665 235.705 172.932 247.192 165.491C258.566 158.136 268.134 148.386 276.415 137.776C284.988 126.71 292.486 114.852 298.807 102.363C311.538 77.2963 319.628 50.1333 322.685 22.1867C323.424 15.3833 323.853 8.55861 323.972 1.71258C324.014 -0.575743 320.46 -0.575743 320.417 1.71258H320.446Z" fill="#F5E340"/>
</g>
<defs>
<clipPath id="clip0_497_354">
<rect width="324" height="245" fill="white"/>
</clipPath>
</defs>
</svg>
